<svg width="47" height="53" viewBox="0 0 47 53" fill="none" xmlns="http://www.w3.org/2000/svg">
<circle cx="3.41675" cy="14.9534" r="2.5" transform="rotate(-30.1058 3.41675 14.9534)" fill="#3E3EFA"/>
<circle cx="12.0677" cy="9.93756" r="2.5" transform="rotate(-30.1058 12.0677 9.93756)" fill="#3E3EFA"/>
<circle cx="20.7188" cy="4.92145" r="2.5" transform="rotate(-30.1058 20.7188 4.92145)" fill="#3E3EFA"/>
<circle cx="9.9375" cy="26.1998" r="2.5" transform="rotate(-30.1058 9.9375 26.1998)" fill="#3E3EFA"/>
<circle cx="18.5885" cy="21.1839" r="2.5" transform="rotate(-30.1058 18.5885 21.1839)" fill="#3E3EFA"/>
<circle cx="27.2395" cy="16.1678" r="2.5" transform="rotate(-30.1058 27.2395 16.1678)" fill="#3E3EFA"/>
<circle cx="16.4583" cy="37.4461" r="2.5" transform="rotate(-30.1058 16.4583 37.4461)" fill="#3E3EFA"/>
<circle cx="25.1093" cy="32.4302" r="2.5" transform="rotate(-30.1058 25.1093 32.4302)" fill="#3E3EFA"/>
<circle cx="33.7603" cy="27.4141" r="2.5" transform="rotate(-30.1058 33.7603 27.4141)" fill="#3E3EFA"/>
<circle cx="22.9791" cy="48.6924" r="2.5" transform="rotate(-30.1058 22.9791 48.6924)" fill="#3E3EFA"/>
<circle cx="31.6301" cy="43.6766" r="2.5" transform="rotate(-30.1058 31.6301 43.6766)" fill="#3E3EFA"/>
<circle cx="40.2811" cy="38.6605" r="2.5" transform="rotate(-30.1058 40.2811 38.6605)" fill="#3E3EFA"/>
</svg>
