<svg width="53" height="96" viewBox="0 0 53 96" fill="none" xmlns="http://www.w3.org/2000/svg">
<path d="M39.2236 44.858L38.6053 44.0721L39.2236 44.858ZM41.6839 90.9619C42.1654 90.6914 42.3364 90.0818 42.0659 89.6003L37.6572 81.754C37.3866 81.2726 36.777 81.1015 36.2955 81.3721C35.814 81.6426 35.643 82.2523 35.9136 82.7338L39.8324 89.7082L32.858 93.627C32.3765 93.8976 32.2055 94.5072 32.476 94.9887C32.7466 95.4702 33.3562 95.6412 33.8377 95.3706L41.6839 90.9619ZM0.33694 1.19875C0.205301 2.19005 0.205381 2.19006 0.20577 2.19011C0.206307 2.19018 0.207 2.19027 0.208074 2.19042C0.210221 2.1907 0.213586 2.19115 0.218159 2.19177C0.227303 2.193 0.241274 2.19489 0.259972 2.19745C0.297372 2.20255 0.353685 2.21032 0.428137 2.22078C0.577044 2.24171 0.798492 2.27344 1.08628 2.31631C1.66189 2.40205 2.50273 2.53236 3.55923 2.71001C5.67259 3.06538 8.64687 3.60987 12.0859 4.36563C18.9755 5.87968 27.6826 8.23149 35.0666 11.5879C38.7583 13.266 42.0837 15.1794 44.6785 17.3389C47.2762 19.5008 49.0861 21.8624 49.852 24.4276C51.348 29.438 48.9972 35.897 38.6053 44.0721L39.8418 45.644C50.3835 37.3512 53.6386 30.1189 51.7684 23.8554C50.8513 20.7838 48.7349 18.1128 45.9579 15.8017C43.178 13.4881 39.6801 11.488 35.8942 9.76716C28.3231 6.3257 19.4586 3.93812 12.5152 2.41224C9.03771 1.64804 6.03019 1.09744 3.89088 0.737703C2.82104 0.557804 1.96782 0.425556 1.38096 0.338135C1.08751 0.294421 0.860622 0.26191 0.706498 0.240247C0.629434 0.229416 0.570557 0.221297 0.530648 0.215845C0.510692 0.21312 0.495476 0.211061 0.485101 0.209663C0.47991 0.208965 0.475933 0.208431 0.473173 0.208063C0.471795 0.207879 0.470646 0.207725 0.469957 0.207633C0.469115 0.20752 0.468579 0.207449 0.33694 1.19875ZM38.6053 44.0721C28.0728 52.3576 22.778 59.4578 20.9129 65.5265C19.0234 71.6741 20.691 76.6359 23.7264 80.4478C26.7255 84.2144 31.0524 86.8603 34.564 88.5548C36.3298 89.4068 37.9121 90.029 39.0546 90.4387C39.6263 90.6438 40.0891 90.796 40.411 90.8976C40.572 90.9484 40.6979 90.9866 40.7847 91.0124C40.8281 91.0253 40.8618 91.0351 40.8851 91.0419C40.8968 91.0452 40.9059 91.0478 40.9124 91.0497C40.9157 91.0506 40.9183 91.0514 40.9202 91.0519C40.9212 91.0522 40.9221 91.0524 40.9226 91.0526C40.9234 91.0528 40.924 91.053 41.1941 90.0901C41.4642 89.1273 41.4644 89.1274 41.4645 89.1274C41.4644 89.1273 41.4643 89.1273 41.4639 89.1272C41.4632 89.127 41.4618 89.1266 41.4598 89.126C41.4557 89.1249 41.449 89.123 41.4398 89.1203C41.4213 89.115 41.3927 89.1067 41.3545 89.0953C41.2779 89.0725 41.1628 89.0376 41.0129 88.9904C40.7132 88.8958 40.275 88.7517 39.7298 88.5561C38.6385 88.1648 37.1231 87.5689 35.4332 86.7535C32.0337 85.1132 28.0178 82.6265 25.2909 79.202C22.6003 75.8229 21.1585 71.5351 22.8246 66.114C24.5151 60.6139 29.4408 53.8262 39.8418 45.644L38.6053 44.0721Z" fill="#FF7F50"/>
</svg>
