<svg width="87" height="70" viewBox="0 0 87 70" fill="none" xmlns="http://www.w3.org/2000/svg">
<path d="M61.9595 60.2076L62.5073 59.371L61.9595 60.2076ZM73.457 1.02427C72.9527 0.79917 72.3614 1.02552 72.1363 1.52985L68.468 9.74833C68.2428 10.2527 68.4692 10.844 68.9735 11.0691C69.4779 11.2942 70.0692 11.0678 70.2943 10.5635L73.555 3.2582L80.8603 6.51892C81.3647 6.74403 81.956 6.51767 82.1811 6.01335C82.4062 5.50902 82.1798 4.9177 81.6755 4.69259L73.457 1.02427ZM1.82436 69.0044C2.74962 69.3837 2.74944 69.3841 2.74933 69.3844C2.74937 69.3843 2.74931 69.3845 2.74938 69.3843C2.74954 69.3839 2.74993 69.383 2.75056 69.3814C2.75182 69.3784 2.75403 69.3731 2.75719 69.3656C2.7635 69.3507 2.77363 69.3269 2.78762 69.2947C2.81561 69.2302 2.85903 69.1321 2.91828 69.0036C3.03681 68.7464 3.21856 68.3676 3.46673 67.8926C3.96332 66.9421 4.72434 65.6094 5.77482 64.0968C7.87898 61.067 11.1246 57.3443 15.7055 54.514C20.2733 51.6918 26.191 49.7418 33.6922 50.2691C41.2062 50.7973 50.3729 53.8162 61.4117 61.0442L62.5073 59.371C51.2634 52.0087 41.7719 48.8321 33.8325 48.274C25.8803 47.715 19.5496 49.788 14.6543 52.8125C9.77206 55.829 6.33993 59.7769 4.13211 62.9559C3.02659 64.5478 2.22306 65.954 1.69409 66.9664C1.42949 67.4729 1.23322 67.8815 1.10192 68.1664C1.03625 68.3089 0.986803 68.4205 0.953148 68.498C0.93632 68.5367 0.923437 68.567 0.914447 68.5883C0.909952 68.5989 0.906431 68.6073 0.903875 68.6135C0.902597 68.6166 0.901561 68.6191 0.900766 68.621C0.900369 68.622 0.899952 68.623 0.899753 68.6234C0.899397 68.6243 0.899101 68.625 1.82436 69.0044ZM61.4117 61.0442C67.0304 64.7232 71.5359 66.6461 75.1121 67.0747C78.7616 67.5121 81.479 66.3882 83.2879 64.0206C85.0331 61.7363 85.8324 58.4223 86.0511 54.652C86.2714 50.8553 85.9099 46.4529 85.2049 41.8634C83.7943 32.6813 80.985 22.6054 78.5373 14.8449C77.3121 10.9602 76.1746 7.64674 75.3432 5.30368C74.9275 4.13202 74.5881 3.20267 74.3524 2.56549C74.2345 2.24689 74.1426 2.00131 74.0799 1.83498C74.0486 1.75182 74.0246 1.68846 74.0084 1.6457C74.0003 1.62431 73.9941 1.60808 73.9899 1.59709C73.9878 1.59159 73.9862 1.58741 73.9851 1.58455C73.9846 1.58312 73.9841 1.58197 73.9838 1.58125C73.9835 1.58043 73.9833 1.57995 73.0494 1.93744C72.1155 2.29494 72.1156 2.29512 72.1158 2.29563C72.116 2.29625 72.1163 2.29709 72.1168 2.29832C72.1177 2.30077 72.1192 2.30454 72.1211 2.30963C72.125 2.31979 72.1309 2.33519 72.1387 2.35573C72.1543 2.39681 72.1776 2.45844 72.2083 2.53985C72.2696 2.70267 72.3602 2.94459 72.4766 3.25937C72.7095 3.88896 73.0458 4.80994 73.4584 5.97251C74.2835 8.29793 75.4132 11.5886 76.6299 15.4465C79.0663 23.171 81.8404 33.1341 83.2281 42.1671C83.9221 46.6851 84.2634 50.9343 84.0545 54.5361C83.844 58.1643 83.0822 60.9956 81.6987 62.8063C80.3789 64.5337 78.4 65.4544 75.3501 65.0889C72.227 64.7146 68.0299 62.9871 62.5073 59.371L61.4117 61.0442Z" fill="#FF7F50"/>
</svg>
