<svg width="49" height="62" viewBox="0 0 49 62" fill="none" xmlns="http://www.w3.org/2000/svg">
<path d="M5.15254 26.1869L4.44002 25.4852L5.15254 26.1869ZM32.5205 57.5422C33.0206 57.3079 33.2362 56.7126 33.0019 56.2124L29.1843 48.0622C28.95 47.5621 28.3546 47.3466 27.8545 47.5808C27.3544 47.8151 27.1388 48.4105 27.3731 48.9106L30.7666 56.1552L23.5219 59.5487C23.0218 59.7829 22.8063 60.3783 23.0405 60.8784C23.2748 61.3785 23.8702 61.5941 24.3703 61.3598L32.5205 57.5422ZM47.9522 1.56627C47.6327 0.618672 47.6324 0.618759 47.6321 0.618882C47.6318 0.618971 47.6313 0.619129 47.6308 0.619307C47.6298 0.619661 47.6283 0.620159 47.6264 0.620799C47.6226 0.62208 47.6172 0.623931 47.61 0.626351C47.5958 0.631193 47.5749 0.638311 47.5476 0.647693C47.4929 0.666457 47.4123 0.694277 47.3069 0.731048C47.0963 0.804588 46.7869 0.913939 46.3887 1.05825C45.5922 1.34687 44.44 1.77542 43.0115 2.33715C40.1551 3.46037 36.1903 5.1174 31.7525 7.25439C22.8981 11.5181 12.074 17.7331 4.44002 25.4852L5.86505 26.8886C13.2551 19.3841 23.8309 13.2888 32.6202 9.05635C37.0043 6.94525 40.9224 5.30774 43.7434 4.19842C45.1536 3.64389 46.2888 3.22169 47.07 2.93861C47.4606 2.79707 47.7626 2.69034 47.9662 2.61927C48.068 2.58373 48.1452 2.5571 48.1965 2.5395C48.2221 2.5307 48.2413 2.52416 48.2539 2.51988C48.2602 2.51774 48.2648 2.51617 48.2678 2.51517C48.2693 2.51466 48.2703 2.51431 48.271 2.51409C48.2713 2.51398 48.2715 2.51393 48.2716 2.51387C48.2717 2.51385 48.2716 2.51387 47.9522 1.56627ZM4.44002 25.4852C2.44977 27.5063 1.33773 29.5955 1.00849 31.7226C0.679229 33.85 1.14959 35.9075 2.1335 37.8356C4.07745 41.6449 8.0986 45.0924 12.4382 47.9667C16.8083 50.8612 21.639 53.2625 25.3637 54.9364C27.2289 55.7747 28.8232 56.4334 29.9524 56.883C30.5172 57.1079 30.966 57.2806 31.2745 57.3975C31.4288 57.4559 31.5481 57.5004 31.6294 57.5304C31.67 57.5454 31.7011 57.5569 31.7223 57.5646C31.7329 57.5685 31.741 57.5715 31.7467 57.5735C31.7495 57.5746 31.7517 57.5753 31.7532 57.5759C31.754 57.5762 31.7546 57.5764 31.755 57.5766C31.7555 57.5768 31.7559 57.5769 32.0963 56.6366C32.4367 55.6963 32.4368 55.6963 32.4366 55.6963C32.4364 55.6962 32.4361 55.6961 32.4356 55.6959C32.4346 55.6956 32.433 55.695 32.4307 55.6941C32.4262 55.6925 32.4191 55.6899 32.4096 55.6864C32.3906 55.6795 32.3617 55.6689 32.3234 55.6547C32.2467 55.6263 32.1322 55.5836 31.9828 55.5271C31.6839 55.4139 31.2457 55.2453 30.6923 55.0249C29.5851 54.5841 28.018 53.9366 26.1835 53.1122C22.5087 51.4607 17.7864 49.1101 13.5426 46.2993C9.26825 43.4682 5.61445 40.2568 3.91495 36.9265C3.07714 35.2847 2.73364 33.6523 2.98496 32.0285C3.23631 30.4046 4.09928 28.6816 5.86505 26.8886L4.44002 25.4852Z" fill="#FF7F50"/>
</svg>
