<svg width="45" height="47" viewBox="0 0 45 47" fill="none" xmlns="http://www.w3.org/2000/svg">
<path d="M0.547345 42.1959C0.379418 42.7221 0.669806 43.2847 1.19594 43.4527L9.76983 46.1892C10.296 46.3571 10.8586 46.0667 11.0265 45.5406C11.1945 45.0144 10.9041 44.4518 10.3779 44.2838L2.75671 41.8514L5.18915 34.2302C5.35708 33.704 5.06669 33.1414 4.54055 32.9735C4.01442 32.8055 3.45177 33.0959 3.28385 33.6221L0.547345 42.1959ZM23.9955 1.87535C23.8639 2.86665 23.8638 2.86664 23.8638 2.86664C23.864 2.86666 23.8641 2.86668 23.8644 2.86672C23.865 2.86681 23.8662 2.86696 23.8677 2.86717C23.8709 2.86759 23.8759 2.86827 23.8828 2.86921C23.8964 2.87108 23.9174 2.87397 23.9454 2.8779C24.0014 2.88577 24.0853 2.89779 24.1948 2.9141C24.4139 2.94674 24.7351 2.99651 25.1394 3.0645C25.9484 3.20054 27.088 3.40915 28.4056 3.69871C31.0524 4.28036 34.3701 5.17853 37.1671 6.44992C38.5653 7.08548 39.7978 7.79857 40.7442 8.58614C41.6934 9.3761 42.299 10.1941 42.5487 11.0304C43.0123 12.5829 42.3809 14.8426 38.4096 17.9667L39.6461 19.5386C43.7671 16.2968 45.3028 13.2638 44.4651 10.4582C44.0642 9.11547 43.1521 7.98806 42.0236 7.04887C40.8922 6.10731 39.487 5.30754 37.9947 4.62919C35.0106 3.27274 31.5355 2.3388 28.8349 1.74532C27.4788 1.44731 26.306 1.23259 25.4711 1.09219C25.0534 1.02196 24.7198 0.970241 24.4895 0.935932C24.3743 0.918776 24.2849 0.905967 24.2238 0.897368C24.1932 0.893068 24.1696 0.889821 24.1534 0.887608C24.1453 0.886502 24.1391 0.885654 24.1347 0.885063C24.1325 0.884768 24.1308 0.884536 24.1295 0.884368C24.1289 0.884285 24.1283 0.884207 24.128 0.884165C24.1275 0.884103 24.1272 0.884057 23.9955 1.87535ZM38.4096 17.9667C30.3674 24.2932 21.0284 30.2043 13.6863 34.5397C10.0181 36.7057 6.85421 38.475 4.60825 39.7024C3.48536 40.316 2.59218 40.794 1.98041 41.1182C1.67453 41.2804 1.43902 41.404 1.28036 41.487C1.20103 41.5284 1.1409 41.5597 1.1008 41.5806C1.08075 41.591 1.06571 41.5988 1.05577 41.6039C1.0508 41.6065 1.0471 41.6084 1.0447 41.6097C1.0435 41.6103 1.04262 41.6107 1.04206 41.611C1.04179 41.6112 1.04161 41.6112 1.04147 41.6113C1.04138 41.6114 1.04137 41.6114 1.5 42.5C1.95863 43.3886 1.95878 43.3885 1.95901 43.3884C1.9592 43.3883 1.95951 43.3882 1.95989 43.388C1.96063 43.3876 1.9617 43.387 1.96309 43.3863C1.96587 43.3849 1.96994 43.3828 1.9753 43.38C1.986 43.3745 2.00181 43.3663 2.02264 43.3555C2.06429 43.3338 2.126 43.3017 2.20694 43.2594C2.36882 43.1748 2.60767 43.0493 2.91701 42.8854C3.53567 42.5575 4.43638 42.0754 5.56732 41.4574C7.82901 40.2215 11.0125 38.4412 14.7032 36.2619C22.0789 31.9066 31.5038 25.944 39.6461 19.5386L38.4096 17.9667Z" fill="#FF7F50"/>
</svg>
