<svg width="218" height="41" viewBox="0 0 218 41" fill="none" xmlns="http://www.w3.org/2000/svg">
<path fill-rule="evenodd" clip-rule="evenodd" d="M40.2887 27.3896C40.6368 29.5462 40.8127 31.7665 40.8101 34L36.8794 33.9887C36.882 31.739 36.6504 29.5067 36.1954 27.3778L10.7776 27.305C10.3175 29.4313 10.0806 31.6622 10.0779 33.912L6.14721 33.9007C6.14986 31.6672 6.33103 29.4479 6.68424 27.2933L0 27.2742L0.00576337 22.4088L7.8101 22.4312C8.66474 19.6203 9.82667 17.0575 11.246 14.8585C12.8584 12.3605 14.7713 10.3809 16.8757 9.03252C18.98 7.68416 21.2346 6.99353 23.5106 7.00005C25.7866 7.00656 28.0394 7.71011 30.1406 9.07051C32.2417 10.4309 34.15 12.4215 35.7564 14.9287C37.1705 17.1358 38.3264 19.7052 39.1744 22.521L47 22.5434L46.9942 27.4088L40.2887 27.3896ZM34.6784 22.5081C34.183 21.3357 33.6116 20.2413 32.9718 19.2427C31.7298 17.3042 30.2543 15.765 28.6297 14.7131C27.0051 13.6613 25.2631 13.1173 23.5033 13.1123C21.7435 13.1072 20.0003 13.6412 18.3732 14.6838C16.7461 15.7263 15.267 17.257 14.0203 19.1885C13.3782 20.1833 12.8042 21.2745 12.3061 22.444L34.6784 22.5081Z" fill="white"/>
<path d="M54.1044 3.432C54.1044 3.22933 54.1897 3.128 54.3604 3.128H62.2964C62.4564 3.128 62.5364 3.21867 62.5364 3.4L62.5204 4.84C62.5204 5.064 62.4137 5.176 62.2004 5.176H57.2084C57.0057 5.176 56.9044 5.26133 56.9044 5.432V7.912C56.9044 8.08267 56.9844 8.168 57.1444 8.168H60.6164C60.787 8.168 60.8724 8.25333 60.8724 8.424V9.944C60.8724 10.0933 60.7924 10.168 60.6324 10.168H57.1284C56.979 10.168 56.9044 10.2373 56.9044 10.376V14.632C56.9044 14.8773 56.7657 15 56.4884 15H54.4564C54.3177 15 54.2217 14.9733 54.1684 14.92C54.1257 14.8667 54.1044 14.7813 54.1044 14.664V3.432ZM73.6221 10.6C73.6221 11.72 73.4301 12.616 73.0461 13.288C72.6621 13.96 72.1128 14.44 71.3981 14.728C70.6835 15.016 69.8301 15.16 68.8381 15.16C67.6755 15.16 66.7421 14.9787 66.0381 14.616C65.3448 14.2427 64.8381 13.6987 64.5181 12.984C64.2088 12.2587 64.0541 11.368 64.0541 10.312V3.448C64.0541 3.23467 64.1395 3.128 64.3101 3.128H66.6141C66.7741 3.128 66.8541 3.224 66.8541 3.416V10.664C66.8541 11.5387 67.0408 12.1733 67.4141 12.568C67.7981 12.9627 68.3421 13.16 69.0461 13.16C69.4941 13.16 69.8888 13.08 70.2301 12.92C70.5715 12.7493 70.8381 12.4773 71.0301 12.104C71.2221 11.7307 71.3181 11.2347 71.3181 10.616V3.432C71.3181 3.22933 71.3981 3.128 71.5581 3.128H73.3821C73.5421 3.128 73.6221 3.224 73.6221 3.416V10.6ZM75.1374 3.416C75.1374 3.33067 75.164 3.26133 75.2174 3.208C75.2707 3.15467 75.3507 3.128 75.4574 3.128H84.6414C84.7587 3.128 84.8387 3.15467 84.8814 3.208C84.9347 3.26133 84.9614 3.33067 84.9614 3.416V4.904C84.9614 5.064 84.8654 5.144 84.6734 5.144H81.6814C81.564 5.144 81.5054 5.19733 81.5054 5.304V14.696C81.5054 14.8987 81.4147 15 81.2334 15H78.9454C78.7854 15 78.7054 14.9093 78.7054 14.728V5.352C78.7054 5.21333 78.6467 5.144 78.5294 5.144H75.4414C75.2387 5.144 75.1374 5.064 75.1374 4.904V3.416ZM96.044 10.6C96.044 11.72 95.852 12.616 95.468 13.288C95.084 13.96 94.5347 14.44 93.82 14.728C93.1053 15.016 92.252 15.16 91.26 15.16C90.0973 15.16 89.164 14.9787 88.46 14.616C87.7667 14.2427 87.26 13.6987 86.94 12.984C86.6307 12.2587 86.476 11.368 86.476 10.312V3.448C86.476 3.23467 86.5613 3.128 86.732 3.128H89.036C89.196 3.128 89.276 3.224 89.276 3.416V10.664C89.276 11.5387 89.4627 12.1733 89.836 12.568C90.22 12.9627 90.764 13.16 91.468 13.16C91.916 13.16 92.3107 13.08 92.652 12.92C92.9933 12.7493 93.26 12.4773 93.452 12.104C93.644 11.7307 93.74 11.2347 93.74 10.616V3.432C93.74 3.22933 93.82 3.128 93.98 3.128H95.804C95.964 3.128 96.044 3.224 96.044 3.416V10.6ZM107.783 14.568C107.826 14.6853 107.821 14.7867 107.767 14.872C107.725 14.9573 107.65 15 107.543 15H105.191C105.01 15 104.893 14.904 104.839 14.712L103.111 10.232C103.047 10.0827 102.898 10.008 102.663 10.008H101.143C101.069 10.008 101.015 10.0293 100.983 10.072C100.962 10.1147 100.951 10.152 100.951 10.184V14.616C100.951 14.872 100.807 15 100.519 15H98.4873C98.3593 15 98.2686 14.9733 98.2153 14.92C98.1726 14.8667 98.1513 14.7867 98.1513 14.68V3.432C98.1513 3.22933 98.2366 3.128 98.4073 3.128H103.399C104.829 3.128 105.938 3.41067 106.727 3.976C107.527 4.54133 107.927 5.34667 107.927 6.392C107.927 6.936 107.826 7.42133 107.623 7.848C107.421 8.27467 107.154 8.632 106.823 8.92C106.493 9.19733 106.13 9.40533 105.735 9.544C105.639 9.576 105.618 9.656 105.671 9.784L107.783 14.568ZM103.143 8.12C103.751 8.12 104.215 7.992 104.535 7.736C104.866 7.46933 105.031 7.08533 105.031 6.584C105.031 6.06133 104.866 5.66667 104.535 5.4C104.205 5.13333 103.767 5 103.223 5H101.255C101.053 5 100.951 5.09067 100.951 5.272V7.848C100.951 8.02933 101.026 8.12 101.175 8.12H103.143ZM109.698 3.432C109.698 3.22933 109.783 3.128 109.954 3.128H118.018C118.178 3.128 118.258 3.21867 118.258 3.4L118.242 4.84C118.242 5.064 118.13 5.176 117.906 5.176H112.802C112.599 5.176 112.498 5.26133 112.498 5.432V7.752C112.498 7.93333 112.578 8.024 112.738 8.024H116.13C116.311 8.024 116.402 8.10933 116.402 8.28V9.816C116.402 9.88 116.381 9.93333 116.338 9.976C116.306 10.0187 116.242 10.04 116.146 10.04H112.722C112.573 10.04 112.498 10.104 112.498 10.232V12.744C112.498 12.8827 112.557 12.952 112.674 12.952H118.146C118.338 12.952 118.434 13.032 118.434 13.192V14.712C118.434 14.7973 118.407 14.8667 118.354 14.92C118.311 14.9733 118.231 15 118.114 15H110.05C109.815 15 109.698 14.888 109.698 14.664V3.432ZM123.768 15C123.672 15 123.597 14.9733 123.544 14.92C123.49 14.8667 123.464 14.7973 123.464 14.712V3.464C123.464 3.368 123.49 3.288 123.544 3.224C123.608 3.16 123.688 3.128 123.784 3.128H128.12C129.688 3.128 130.882 3.39467 131.704 3.928C132.536 4.45067 132.952 5.224 132.952 6.248C132.952 6.83467 132.792 7.33067 132.472 7.736C132.162 8.14133 131.624 8.50933 130.856 8.84C130.824 8.85067 130.808 8.872 130.808 8.904C130.808 8.936 130.824 8.95733 130.856 8.968C131.698 9.24533 132.306 9.608 132.68 10.056C133.053 10.4933 133.24 11.0693 133.24 11.784C133.24 12.872 132.829 13.6827 132.008 14.216C131.186 14.7387 129.96 15 128.328 15H123.768ZM128.248 13.112C128.941 13.112 129.458 12.968 129.8 12.68C130.152 12.392 130.328 12.008 130.328 11.528C130.328 11.1867 130.242 10.904 130.072 10.68C129.901 10.4453 129.666 10.2693 129.368 10.152C129.08 10.0347 128.744 9.976 128.36 9.976H126.568C126.365 9.976 126.264 10.0667 126.264 10.248V12.808C126.264 13.0107 126.338 13.112 126.488 13.112H128.248ZM128.36 8.024C128.605 8.024 128.834 7.99733 129.048 7.944C129.272 7.89067 129.464 7.8 129.624 7.672C129.794 7.544 129.928 7.38933 130.024 7.208C130.13 7.02667 130.184 6.81333 130.184 6.568C130.184 6.06667 129.997 5.68267 129.624 5.416C129.261 5.14933 128.792 5.016 128.216 5.016H126.568C126.365 5.016 126.264 5.10667 126.264 5.288V7.736C126.264 7.928 126.338 8.024 126.488 8.024H128.36ZM144.658 14.568C144.701 14.6853 144.696 14.7867 144.642 14.872C144.6 14.9573 144.525 15 144.418 15H142.066C141.885 15 141.768 14.904 141.714 14.712L139.986 10.232C139.922 10.0827 139.773 10.008 139.538 10.008H138.018C137.944 10.008 137.89 10.0293 137.858 10.072C137.837 10.1147 137.826 10.152 137.826 10.184V14.616C137.826 14.872 137.682 15 137.394 15H135.362C135.234 15 135.144 14.9733 135.09 14.92C135.048 14.8667 135.026 14.7867 135.026 14.68V3.432C135.026 3.22933 135.112 3.128 135.282 3.128H140.274C141.704 3.128 142.813 3.41067 143.602 3.976C144.402 4.54133 144.802 5.34667 144.802 6.392C144.802 6.936 144.701 7.42133 144.498 7.848C144.296 8.27467 144.029 8.632 143.698 8.92C143.368 9.19733 143.005 9.40533 142.61 9.544C142.514 9.576 142.493 9.656 142.546 9.784L144.658 14.568ZM140.018 8.12C140.626 8.12 141.09 7.992 141.41 7.736C141.741 7.46933 141.906 7.08533 141.906 6.584C141.906 6.06133 141.741 5.66667 141.41 5.4C141.08 5.13333 140.642 5 140.098 5H138.13C137.928 5 137.826 5.09067 137.826 5.272V7.848C137.826 8.02933 137.901 8.12 138.05 8.12H140.018ZM149.117 3.128C149.288 3.128 149.373 3.224 149.373 3.416V14.616C149.373 14.7547 149.336 14.856 149.261 14.92C149.197 14.9733 149.09 15 148.941 15H146.925C146.786 15 146.69 14.9733 146.637 14.92C146.594 14.8667 146.573 14.7813 146.573 14.664V3.432C146.573 3.22933 146.658 3.128 146.829 3.128H149.117ZM151.972 3.128C152.164 3.128 152.42 3.128 152.74 3.128C153.071 3.128 153.412 3.128 153.764 3.128C154.127 3.128 154.468 3.128 154.788 3.128C155.108 3.128 155.359 3.13333 155.54 3.144C156.98 3.176 158.164 3.43733 159.092 3.928C160.02 4.41867 160.703 5.096 161.14 5.96C161.588 6.81333 161.812 7.832 161.812 9.016C161.812 10.232 161.577 11.2933 161.108 12.2C160.649 13.096 159.945 13.7893 158.996 14.28C158.057 14.76 156.879 15 155.46 15H151.988C151.743 15 151.62 14.872 151.62 14.616V3.464C151.62 3.336 151.647 3.25067 151.7 3.208C151.753 3.15467 151.844 3.128 151.972 3.128ZM154.58 5.112C154.473 5.112 154.42 5.18667 154.42 5.336V12.808C154.42 12.9573 154.489 13.032 154.628 13.032H154.932C155.807 13.032 156.537 12.904 157.124 12.648C157.711 12.3813 158.148 11.9547 158.436 11.368C158.735 10.7813 158.884 10.0027 158.884 9.032C158.884 8.09333 158.745 7.34133 158.468 6.776C158.201 6.2 157.785 5.77867 157.22 5.512C156.665 5.24533 155.956 5.112 155.092 5.112H154.58ZM168.564 15.16C167.486 15.16 166.542 14.9093 165.732 14.408C164.932 13.9067 164.313 13.2027 163.876 12.296C163.438 11.3893 163.22 10.328 163.22 9.112C163.22 7.85333 163.449 6.76533 163.908 5.848C164.366 4.93067 165.006 4.22133 165.828 3.72C166.66 3.21867 167.625 2.968 168.724 2.968C169.588 2.968 170.361 3.13333 171.044 3.464C171.726 3.79467 172.276 4.216 172.692 4.728C173.118 5.24 173.385 5.784 173.492 6.36C173.534 6.52 173.54 6.62667 173.508 6.68C173.486 6.73333 173.422 6.77067 173.316 6.792L171.204 7.112C171.108 7.112 171.044 7.09067 171.012 7.048C170.99 7.00533 170.969 6.94133 170.948 6.856C170.884 6.504 170.75 6.184 170.548 5.896C170.356 5.608 170.1 5.37867 169.78 5.208C169.47 5.02667 169.097 4.936 168.66 4.936C168.137 4.936 167.684 5.07467 167.3 5.352C166.926 5.62933 166.638 6.06667 166.436 6.664C166.244 7.26133 166.148 8.04533 166.148 9.016C166.148 10.04 166.249 10.856 166.452 11.464C166.665 12.072 166.964 12.5147 167.348 12.792C167.742 13.0587 168.212 13.192 168.756 13.192C169.097 13.192 169.396 13.144 169.652 13.048C169.918 12.9413 170.142 12.8027 170.324 12.632C170.516 12.4613 170.67 12.2693 170.788 12.056C170.905 11.832 170.99 11.6027 171.044 11.368L171.076 10.904C171.118 10.744 171.065 10.664 170.916 10.664H168.98C168.894 10.664 168.83 10.648 168.788 10.616C168.745 10.5733 168.724 10.4987 168.724 10.392V9.192C168.724 9.04267 168.809 8.968 168.98 8.968L173.252 8.984C173.412 8.984 173.529 9.02133 173.604 9.096C173.678 9.16 173.716 9.25067 173.716 9.368V14.76C173.716 14.8347 173.694 14.8933 173.652 14.936C173.609 14.9787 173.55 15 173.476 15H172.964C172.878 15 172.804 14.984 172.74 14.952C172.676 14.9093 172.612 14.84 172.548 14.744L172.084 13.592C172.073 13.56 172.052 13.544 172.02 13.544C171.998 13.544 171.966 13.5707 171.924 13.624C171.732 13.8587 171.492 14.0987 171.204 14.344C170.916 14.5787 170.558 14.776 170.132 14.936C169.705 15.0853 169.182 15.16 168.564 15.16ZM175.667 3.432C175.667 3.22933 175.752 3.128 175.923 3.128H183.987C184.147 3.128 184.227 3.21867 184.227 3.4L184.211 4.84C184.211 5.064 184.099 5.176 183.875 5.176H178.771C178.568 5.176 178.467 5.26133 178.467 5.432V7.752C178.467 7.93333 178.547 8.024 178.707 8.024H182.099C182.28 8.024 182.371 8.10933 182.371 8.28V9.816C182.371 9.88 182.35 9.93333 182.307 9.976C182.275 10.0187 182.211 10.04 182.115 10.04H178.691C178.542 10.04 178.467 10.104 178.467 10.232V12.744C178.467 12.8827 178.526 12.952 178.643 12.952H184.115C184.307 12.952 184.403 13.032 184.403 13.192V14.712C184.403 14.7973 184.376 14.8667 184.323 14.92C184.28 14.9733 184.2 15 184.083 15H176.019C175.784 15 175.667 14.888 175.667 14.664V3.432Z" fill="white"/>
<path d="M52.9427 28.72C52.9427 28.6733 52.9527 28.64 52.9727 28.62C52.9994 28.5933 53.0394 28.58 53.0927 28.58H58.5827C58.6361 28.58 58.6727 28.5933 58.6927 28.62C58.7127 28.64 58.7227 28.6733 58.7227 28.72V29.36C58.7227 29.44 58.6761 29.48 58.5827 29.48H56.6027C56.5294 29.48 56.4927 29.51 56.4927 29.57V35.85C56.4927 35.95 56.4494 36 56.3627 36H55.4227C55.3361 36 55.2927 35.9533 55.2927 35.86V29.59C55.2927 29.5167 55.2561 29.48 55.1827 29.48H53.0827C52.9894 29.48 52.9427 29.44 52.9427 29.36V28.72ZM65.5252 35.79C65.5452 35.8433 65.5419 35.8933 65.5152 35.94C65.4952 35.98 65.4586 36 65.4052 36H64.4352C64.3552 36 64.2952 35.9533 64.2552 35.86L63.0352 32.82C63.0019 32.74 62.9186 32.7 62.7852 32.7H61.3252C61.2786 32.7 61.2452 32.7133 61.2252 32.74C61.2119 32.76 61.2052 32.7833 61.2052 32.81V35.82C61.2052 35.94 61.1419 36 61.0152 36H60.1652C60.0986 36 60.0519 35.9867 60.0252 35.96C60.0052 35.9333 59.9952 35.8933 59.9952 35.84V28.73C59.9952 28.63 60.0419 28.58 60.1352 28.58H63.0252C63.8452 28.58 64.4819 28.7467 64.9352 29.08C65.3952 29.4133 65.6252 29.9 65.6252 30.54C65.6252 30.9067 65.5552 31.2233 65.4152 31.49C65.2752 31.75 65.0952 31.9633 64.8752 32.13C64.6619 32.29 64.4319 32.4067 64.1852 32.48C64.1386 32.5 64.1252 32.54 64.1452 32.6L65.5252 35.79ZM62.7852 31.85C63.3052 31.85 63.6986 31.7533 63.9652 31.56C64.2386 31.36 64.3752 31.05 64.3752 30.63C64.3752 30.23 64.2519 29.93 64.0052 29.73C63.7586 29.53 63.4086 29.43 62.9552 29.43H61.3652C61.2586 29.43 61.2052 29.47 61.2052 29.55V31.71C61.2052 31.8033 61.2419 31.85 61.3152 31.85H62.7852ZM66.4519 36C66.4052 36 66.3719 35.98 66.3519 35.94C66.3319 35.9 66.3319 35.85 66.3519 35.79L68.9019 28.74C68.9219 28.68 68.9485 28.64 68.9819 28.62C69.0152 28.5933 69.0619 28.58 69.1219 28.58H70.1319C70.2585 28.58 70.3419 28.6367 70.3819 28.75L72.9119 35.8C72.9319 35.8467 72.9319 35.8933 72.9119 35.94C72.8919 35.98 72.8552 36 72.8019 36H71.8619C71.7752 36 71.7185 35.96 71.6919 35.88L71.0519 34.1C71.0452 34.0667 71.0319 34.0433 71.0119 34.03C70.9985 34.0167 70.9719 34.01 70.9319 34.01H68.1619C68.1019 34.01 68.0619 34.0367 68.0419 34.09L67.3919 35.9C67.3785 35.9333 67.3585 35.96 67.3319 35.98C67.3119 35.9933 67.2752 36 67.2219 36H66.4519ZM70.6219 33.07C70.7085 33.07 70.7352 33.0233 70.7019 32.93L69.6219 29.93C69.5952 29.8767 69.5685 29.85 69.5419 29.85C69.5219 29.85 69.5019 29.88 69.4819 29.94L68.3719 32.94C68.3385 33.0267 68.3619 33.07 68.4419 33.07H70.6219ZM79.914 28.58C79.9873 28.58 80.024 28.6233 80.024 28.71V35.87C80.024 35.91 80.0107 35.9433 79.984 35.97C79.9573 35.99 79.9207 36 79.874 36H79.224C79.1773 36 79.1373 35.9967 79.104 35.99C79.0707 35.9767 79.0373 35.9467 79.004 35.9L75.354 30.66C75.3207 30.6133 75.294 30.5933 75.274 30.6C75.254 30.6067 75.244 30.63 75.244 30.67V35.86C75.244 35.9533 75.1907 36 75.084 36H74.374C74.2673 36 74.214 35.9533 74.214 35.86V28.73C74.214 28.63 74.264 28.58 74.364 28.58H75.144C75.1973 28.58 75.2373 28.5867 75.264 28.6C75.2973 28.6133 75.3307 28.6467 75.364 28.7L78.864 33.77C78.904 33.8233 78.9373 33.8467 78.964 33.84C78.9973 33.8267 79.014 33.7967 79.014 33.75V28.72C79.014 28.6267 79.0607 28.58 79.154 28.58H79.914ZM85.8823 30.08C85.709 29.8867 85.4957 29.72 85.2423 29.58C84.989 29.44 84.659 29.37 84.2523 29.37C83.779 29.37 83.409 29.47 83.1423 29.67C82.8823 29.8633 82.7523 30.1333 82.7523 30.48C82.7523 30.5733 82.7757 30.6833 82.8223 30.81C82.869 30.9367 82.9623 31.06 83.1023 31.18C83.249 31.2933 83.459 31.4 83.7323 31.5L85.2323 31.97C85.839 32.1567 86.2723 32.4233 86.5323 32.77C86.799 33.11 86.9323 33.51 86.9323 33.97C86.9323 34.41 86.819 34.79 86.5923 35.11C86.3723 35.43 86.0557 35.6767 85.6423 35.85C85.2357 36.0167 84.749 36.1 84.1823 36.1C83.7623 36.1 83.3723 36.0533 83.0123 35.96C82.659 35.86 82.3423 35.7167 82.0623 35.53C81.789 35.3367 81.559 35.1033 81.3723 34.83C81.3457 34.7833 81.3357 34.74 81.3423 34.7C81.349 34.66 81.379 34.62 81.4323 34.58L81.9223 34.24C81.9957 34.1933 82.0523 34.1733 82.0923 34.18C82.1323 34.1867 82.169 34.21 82.2023 34.25C82.369 34.4633 82.5357 34.6433 82.7023 34.79C82.8757 34.9367 83.0723 35.0467 83.2923 35.12C83.519 35.1867 83.7923 35.22 84.1123 35.22C84.6123 35.22 85.0123 35.1333 85.3123 34.96C85.619 34.78 85.7723 34.4967 85.7723 34.11C85.7723 33.9567 85.7423 33.82 85.6823 33.7C85.6223 33.5733 85.519 33.46 85.3723 33.36C85.2257 33.2533 85.0123 33.15 84.7323 33.05L83.2223 32.56C82.8423 32.4333 82.5323 32.27 82.2923 32.07C82.059 31.87 81.8857 31.6433 81.7723 31.39C81.659 31.1367 81.6023 30.8767 81.6023 30.61C81.6023 30.1833 81.7123 29.81 81.9323 29.49C82.1523 29.17 82.459 28.9233 82.8523 28.75C83.2457 28.57 83.7057 28.48 84.2323 28.48C84.5857 28.48 84.909 28.5233 85.2023 28.61C85.5023 28.69 85.7757 28.8067 86.0223 28.96C86.269 29.1067 86.479 29.2833 86.6523 29.49C86.679 29.5233 86.6957 29.5567 86.7023 29.59C86.7157 29.6233 86.699 29.66 86.6523 29.7L86.0823 30.14C86.0423 30.1667 86.009 30.1767 85.9823 30.17C85.9623 30.1567 85.929 30.1267 85.8823 30.08ZM88.3058 28.73C88.3058 28.63 88.3524 28.58 88.4458 28.58H93.0158C93.0958 28.58 93.1358 28.6233 93.1358 28.71L93.1258 29.34C93.1258 29.44 93.0758 29.49 92.9758 29.49H89.6658C89.5658 29.49 89.5158 29.5333 89.5158 29.62V31.8C89.5158 31.88 89.5591 31.92 89.6458 31.92H92.1558C92.2358 31.92 92.2758 31.96 92.2758 32.04V32.7C92.2758 32.7733 92.2358 32.81 92.1558 32.81H89.6358C89.5558 32.81 89.5158 32.85 89.5158 32.93V35.84C89.5158 35.9467 89.4558 36 89.3358 36H88.4758C88.4091 36 88.3624 35.99 88.3358 35.97C88.3158 35.9433 88.3058 35.9 88.3058 35.84V28.73ZM97.0177 36.1C96.3444 36.1 95.7644 35.9533 95.2777 35.66C94.7911 35.36 94.4177 34.93 94.1577 34.37C93.8977 33.8033 93.7677 33.12 93.7677 32.32C93.7677 31.5133 93.9011 30.8233 94.1677 30.25C94.4344 29.6767 94.8111 29.24 95.2977 28.94C95.7844 28.6333 96.3611 28.48 97.0277 28.48C97.6877 28.48 98.2577 28.6333 98.7377 28.94C99.2244 29.24 99.5977 29.6767 99.8577 30.25C100.124 30.8167 100.258 31.5033 100.258 32.31C100.258 33.11 100.128 33.7933 99.8677 34.36C99.6077 34.92 99.2344 35.35 98.7477 35.65C98.2611 35.95 97.6844 36.1 97.0177 36.1ZM97.0277 35.21C97.6944 35.21 98.1877 34.98 98.5077 34.52C98.8344 34.0533 98.9977 33.32 98.9977 32.32C98.9977 31.3067 98.8311 30.56 98.4977 30.08C98.1711 29.6 97.6811 29.36 97.0277 29.36C96.3611 29.36 95.8611 29.6033 95.5277 30.09C95.1944 30.57 95.0277 31.3133 95.0277 32.32C95.0277 33.3133 95.1944 34.0433 95.5277 34.51C95.8611 34.9767 96.3611 35.21 97.0277 35.21ZM107.254 35.79C107.274 35.8433 107.27 35.8933 107.244 35.94C107.224 35.98 107.187 36 107.134 36H106.164C106.084 36 106.024 35.9533 105.984 35.86L104.764 32.82C104.73 32.74 104.647 32.7 104.514 32.7H103.054C103.007 32.7 102.974 32.7133 102.954 32.74C102.94 32.76 102.934 32.7833 102.934 32.81V35.82C102.934 35.94 102.87 36 102.744 36H101.894C101.827 36 101.78 35.9867 101.754 35.96C101.734 35.9333 101.724 35.8933 101.724 35.84V28.73C101.724 28.63 101.77 28.58 101.864 28.58H104.754C105.574 28.58 106.21 28.7467 106.664 29.08C107.124 29.4133 107.354 29.9 107.354 30.54C107.354 30.9067 107.284 31.2233 107.144 31.49C107.004 31.75 106.824 31.9633 106.604 32.13C106.39 32.29 106.16 32.4067 105.914 32.48C105.867 32.5 105.854 32.54 105.874 32.6L107.254 35.79ZM104.514 31.85C105.034 31.85 105.427 31.7533 105.694 31.56C105.967 31.36 106.104 31.05 106.104 30.63C106.104 30.23 105.98 29.93 105.734 29.73C105.487 29.53 105.137 29.43 104.684 29.43H103.094C102.987 29.43 102.934 29.47 102.934 29.55V31.71C102.934 31.8033 102.97 31.85 103.044 31.85H104.514ZM108.925 36C108.818 36 108.765 35.9433 108.765 35.83V28.73C108.765 28.63 108.811 28.58 108.905 28.58H110.215C110.275 28.58 110.318 28.59 110.345 28.61C110.371 28.6233 110.391 28.6533 110.405 28.7L112.405 33.95C112.431 34.01 112.458 34.04 112.485 34.04C112.511 34.0333 112.535 34 112.555 33.94L114.525 28.74C114.565 28.6333 114.625 28.58 114.705 28.58H116.065C116.151 28.58 116.195 28.63 116.195 28.73V35.82C116.195 35.94 116.135 36 116.015 36H115.155C115.095 36 115.051 35.99 115.025 35.97C114.998 35.9433 114.985 35.9 114.985 35.84V30.36C114.985 30.32 114.975 30.3033 114.955 30.31C114.941 30.3167 114.931 30.3367 114.925 30.37L112.865 35.86C112.831 35.9533 112.768 36 112.675 36H112.075C111.968 36 111.898 35.9567 111.865 35.87L109.845 30.43C109.825 30.39 109.808 30.37 109.795 30.37C109.781 30.37 109.775 30.39 109.775 30.43V35.86C109.775 35.9067 109.765 35.9433 109.745 35.97C109.725 35.99 109.685 36 109.625 36H108.925ZM119.723 36C119.677 36 119.643 35.98 119.623 35.94C119.603 35.9 119.603 35.85 119.623 35.79L122.173 28.74C122.193 28.68 122.22 28.64 122.253 28.62C122.287 28.5933 122.333 28.58 122.393 28.58H123.403C123.53 28.58 123.613 28.6367 123.653 28.75L126.183 35.8C126.203 35.8467 126.203 35.8933 126.183 35.94C126.163 35.98 126.127 36 126.073 36H125.133C125.047 36 124.99 35.96 124.963 35.88L124.323 34.1C124.317 34.0667 124.303 34.0433 124.283 34.03C124.27 34.0167 124.243 34.01 124.203 34.01H121.433C121.373 34.01 121.333 34.0367 121.313 34.09L120.663 35.9C120.65 35.9333 120.63 35.96 120.603 35.98C120.583 35.9933 120.547 36 120.493 36H119.723ZM123.893 33.07C123.98 33.07 124.007 33.0233 123.973 32.93L122.893 29.93C122.867 29.8767 122.84 29.85 122.813 29.85C122.793 29.85 122.773 29.88 122.753 29.94L121.643 32.94C121.61 33.0267 121.633 33.07 121.713 33.07H123.893ZM133.185 28.58C133.259 28.58 133.295 28.6233 133.295 28.71V35.87C133.295 35.91 133.282 35.9433 133.255 35.97C133.229 35.99 133.192 36 133.145 36H132.495C132.449 36 132.409 35.9967 132.375 35.99C132.342 35.9767 132.309 35.9467 132.275 35.9L128.625 30.66C128.592 30.6133 128.565 30.5933 128.545 30.6C128.525 30.6067 128.515 30.63 128.515 30.67V35.86C128.515 35.9533 128.462 36 128.355 36H127.645C127.539 36 127.485 35.9533 127.485 35.86V28.73C127.485 28.63 127.535 28.58 127.635 28.58H128.415C128.469 28.58 128.509 28.5867 128.535 28.6C128.569 28.6133 128.602 28.6467 128.635 28.7L132.135 33.77C132.175 33.8233 132.209 33.8467 132.235 33.84C132.269 33.8267 132.285 33.7967 132.285 33.75V28.72C132.285 28.6267 132.332 28.58 132.425 28.58H133.185ZM135.224 28.58C135.297 28.58 135.414 28.58 135.574 28.58C135.74 28.58 135.917 28.5833 136.104 28.59C136.297 28.59 136.474 28.59 136.634 28.59C136.8 28.59 136.924 28.59 137.004 28.59C137.917 28.6033 138.66 28.7567 139.234 29.05C139.807 29.3367 140.227 29.7467 140.494 30.28C140.767 30.8133 140.904 31.4667 140.904 32.24C140.904 33.0533 140.757 33.74 140.464 34.3C140.177 34.86 139.737 35.2833 139.144 35.57C138.557 35.8567 137.814 36 136.914 36H135.234C135.114 36 135.054 35.94 135.054 35.82V28.74C135.054 28.68 135.067 28.64 135.094 28.62C135.12 28.5933 135.164 28.58 135.224 28.58ZM136.364 29.47C136.297 29.47 136.264 29.5167 136.264 29.61V35C136.264 35.08 136.304 35.12 136.384 35.12H136.714C137.387 35.12 137.94 35.0267 138.374 34.84C138.807 34.6533 139.127 34.3533 139.334 33.94C139.54 33.52 139.644 32.9667 139.644 32.28C139.644 31.5733 139.54 31.0167 139.334 30.61C139.127 30.2033 138.81 29.9133 138.384 29.74C137.964 29.56 137.427 29.47 136.774 29.47H136.364ZM145.567 28.58C145.654 28.58 145.697 28.63 145.697 28.73V35.81C145.697 35.8833 145.681 35.9333 145.647 35.96C145.621 35.9867 145.567 36 145.487 36H144.667C144.594 36 144.544 35.99 144.517 35.97C144.497 35.9433 144.487 35.9 144.487 35.84V28.73C144.487 28.63 144.534 28.58 144.627 28.58H145.567ZM153.166 28.58C153.239 28.58 153.276 28.6233 153.276 28.71V35.87C153.276 35.91 153.263 35.9433 153.236 35.97C153.209 35.99 153.173 36 153.126 36H152.476C152.429 36 152.389 35.9967 152.356 35.99C152.323 35.9767 152.289 35.9467 152.256 35.9L148.606 30.66C148.573 30.6133 148.546 30.5933 148.526 30.6C148.506 30.6067 148.496 30.63 148.496 30.67V35.86C148.496 35.9533 148.443 36 148.336 36H147.626C147.519 36 147.466 35.9533 147.466 35.86V28.73C147.466 28.63 147.516 28.58 147.616 28.58H148.396C148.449 28.58 148.489 28.5867 148.516 28.6C148.549 28.6133 148.583 28.6467 148.616 28.7L152.116 33.77C152.156 33.8233 152.189 33.8467 152.216 33.84C152.249 33.8267 152.266 33.7967 152.266 33.75V28.72C152.266 28.6267 152.313 28.58 152.406 28.58H153.166ZM160.734 28.58C160.808 28.58 160.844 28.6233 160.844 28.71V35.87C160.844 35.91 160.831 35.9433 160.804 35.97C160.778 35.99 160.741 36 160.694 36H160.044C159.998 36 159.958 35.9967 159.924 35.99C159.891 35.9767 159.858 35.9467 159.824 35.9L156.174 30.66C156.141 30.6133 156.114 30.5933 156.094 30.6C156.074 30.6067 156.064 30.63 156.064 30.67V35.86C156.064 35.9533 156.011 36 155.904 36H155.194C155.088 36 155.034 35.9533 155.034 35.86V28.73C155.034 28.63 155.084 28.58 155.184 28.58H155.964C156.018 28.58 156.058 28.5867 156.084 28.6C156.118 28.6133 156.151 28.6467 156.184 28.7L159.684 33.77C159.724 33.8233 159.758 33.8467 159.784 33.84C159.818 33.8267 159.834 33.7967 159.834 33.75V28.72C159.834 28.6267 159.881 28.58 159.974 28.58H160.734ZM165.563 36.1C164.889 36.1 164.309 35.9533 163.823 35.66C163.336 35.36 162.963 34.93 162.703 34.37C162.443 33.8033 162.313 33.12 162.313 32.32C162.313 31.5133 162.446 30.8233 162.713 30.25C162.979 29.6767 163.356 29.24 163.843 28.94C164.329 28.6333 164.906 28.48 165.573 28.48C166.233 28.48 166.803 28.6333 167.283 28.94C167.769 29.24 168.143 29.6767 168.403 30.25C168.669 30.8167 168.803 31.5033 168.803 32.31C168.803 33.11 168.673 33.7933 168.413 34.36C168.153 34.92 167.779 35.35 167.293 35.65C166.806 35.95 166.229 36.1 165.563 36.1ZM165.573 35.21C166.239 35.21 166.733 34.98 167.053 34.52C167.379 34.0533 167.543 33.32 167.543 32.32C167.543 31.3067 167.376 30.56 167.043 30.08C166.716 29.6 166.226 29.36 165.573 29.36C164.906 29.36 164.406 29.6033 164.073 30.09C163.739 30.57 163.573 31.3133 163.573 32.32C163.573 33.3133 163.739 34.0433 164.073 34.51C164.406 34.9767 164.906 35.21 165.573 35.21ZM175.569 28.58C175.623 28.58 175.659 28.5967 175.679 28.63C175.706 28.6633 175.709 28.7033 175.689 28.75L173.189 35.83C173.156 35.9433 173.073 36 172.939 36H172.089C171.943 36 171.853 35.9467 171.819 35.84L169.369 28.76C169.356 28.7067 169.359 28.6633 169.379 28.63C169.406 28.5967 169.443 28.58 169.489 28.58H170.429C170.516 28.58 170.573 28.6233 170.599 28.71L172.549 34.46C172.596 34.5867 172.643 34.5833 172.689 34.45L174.629 28.71C174.656 28.6233 174.716 28.58 174.809 28.58H175.569ZM175.719 36C175.673 36 175.639 35.98 175.619 35.94C175.599 35.9 175.599 35.85 175.619 35.79L178.169 28.74C178.189 28.68 178.216 28.64 178.249 28.62C178.283 28.5933 178.329 28.58 178.389 28.58H179.399C179.526 28.58 179.609 28.6367 179.649 28.75L182.179 35.8C182.199 35.8467 182.199 35.8933 182.179 35.94C182.159 35.98 182.123 36 182.069 36H181.129C181.043 36 180.986 35.96 180.959 35.88L180.319 34.1C180.313 34.0667 180.299 34.0433 180.279 34.03C180.266 34.0167 180.239 34.01 180.199 34.01H177.429C177.369 34.01 177.329 34.0367 177.309 34.09L176.659 35.9C176.646 35.9333 176.626 35.96 176.599 35.98C176.579 35.9933 176.543 36 176.489 36H175.719ZM179.889 33.07C179.976 33.07 180.003 33.0233 179.969 32.93L178.889 29.93C178.863 29.8767 178.836 29.85 178.809 29.85C178.789 29.85 178.769 29.88 178.749 29.94L177.639 32.94C177.606 33.0267 177.629 33.07 177.709 33.07H179.889ZM181.917 28.72C181.917 28.6733 181.927 28.64 181.947 28.62C181.974 28.5933 182.014 28.58 182.067 28.58H187.557C187.611 28.58 187.647 28.5933 187.667 28.62C187.687 28.64 187.697 28.6733 187.697 28.72V29.36C187.697 29.44 187.651 29.48 187.557 29.48H185.577C185.504 29.48 185.467 29.51 185.467 29.57V35.85C185.467 35.95 185.424 36 185.337 36H184.397C184.311 36 184.267 35.9533 184.267 35.86V29.59C184.267 29.5167 184.231 29.48 184.157 29.48H182.057C181.964 29.48 181.917 29.44 181.917 29.36V28.72ZM188.97 28.73C188.97 28.63 189.017 28.58 189.11 28.58H193.77C193.85 28.58 193.89 28.6233 193.89 28.71L193.88 29.34C193.88 29.44 193.83 29.49 193.73 29.49H190.33C190.23 29.49 190.18 29.5333 190.18 29.62V31.68C190.18 31.7667 190.223 31.81 190.31 31.81H192.75C192.837 31.81 192.88 31.85 192.88 31.93V32.6C192.88 32.6333 192.87 32.66 192.85 32.68C192.837 32.7 192.803 32.71 192.75 32.71H190.3C190.22 32.71 190.18 32.7467 190.18 32.82V34.98C190.18 35.0533 190.213 35.09 190.28 35.09H193.87C193.963 35.09 194.01 35.13 194.01 35.21V35.87C194.01 35.91 194 35.9433 193.98 35.97C193.96 35.99 193.923 36 193.87 36H189.14C189.027 36 188.97 35.9467 188.97 35.84V28.73Z" fill="white"/>
</svg>
