<svg width="264" height="41" viewBox="0 0 264 41" fill="none" xmlns="http://www.w3.org/2000/svg">
<path fill-rule="evenodd" clip-rule="evenodd" d="M62.5761 30.9619C63.1167 34.2368 63.39 37.6083 63.3858 41L57.2807 40.9829C57.2849 37.5666 56.9251 34.1768 56.2183 30.9441L16.7396 30.8336C16.025 34.0623 15.657 37.4501 15.6529 40.8663L9.5478 40.8492C9.55191 37.4576 9.8333 34.0876 10.3819 30.8158L0 30.7867L0.00895162 23.3985L12.1306 23.4325C13.458 19.1641 15.2627 15.2725 17.4673 11.9333C19.9715 8.14009 22.9427 5.13392 26.2112 3.08642C29.4796 1.03891 32.9813 -0.0098298 36.5164 6.9431e-05C40.0515 0.00996866 43.5506 1.07832 46.8141 3.14411C50.0776 5.20991 53.0414 8.2327 55.5365 12.0399C57.733 15.3914 59.5282 19.2931 60.8453 23.5689L73 23.603L72.9911 30.9911L62.5761 30.9619ZM53.8622 23.5494C53.0928 21.7691 52.2053 20.1071 51.2116 18.5908C49.2824 15.6471 46.9907 13.3098 44.4674 11.7126C41.944 10.1153 39.2385 9.28923 36.5052 9.28157C33.7718 9.27392 31.0643 10.0848 28.5371 11.6679C26.0099 13.2511 23.7126 15.5755 21.7763 18.5084C20.7789 20.0191 19.8874 21.6761 19.1137 23.452L53.8622 23.5494Z" fill="#3E3EFA"/>
<path d="M86.356 36H83.496V22.6H93.196V25.14H86.356V28.46H92.056V31H86.356V36ZM99.8945 36.2C96.1545 36.2 94.2545 34.32 94.2545 30.12V22.6H97.1145V30.16C97.1145 32.48 97.9945 33.44 99.9145 33.44C101.874 33.44 102.694 32.48 102.694 30.16V22.6H105.554V30.12C105.554 34.32 103.714 36.2 99.8945 36.2ZM113.091 36H110.231V25.14H106.231V22.6H117.091V25.14H113.091V36ZM123.391 36.2C119.651 36.2 117.751 34.32 117.751 30.12V22.6H120.611V30.16C120.611 32.48 121.491 33.44 123.411 33.44C125.371 33.44 126.191 32.48 126.191 30.16V22.6H129.051V30.12C129.051 34.32 127.211 36.2 123.391 36.2ZM134.325 36H131.465V22.6H137.685C140.585 22.6 142.705 23.94 142.705 26.78C142.705 29.16 141.085 30.38 138.905 30.64C139.965 30.92 140.525 31.58 141.105 32.52L143.225 36H139.925L137.665 32.2C137.145 31.3 136.545 30.98 135.365 30.98H134.325V36ZM137.585 25.14H134.325V28.68H137.585C138.825 28.68 139.705 28.18 139.705 26.92C139.705 25.62 138.825 25.14 137.585 25.14ZM154.156 36H144.316V22.6H154.156V25.14H147.176V27.96H153.016V30.5H147.176V33.46H154.156V36ZM166.246 36H159.746V22.6H166.326C169.286 22.6 170.466 24.1 170.466 26C170.466 28.28 168.426 29.02 166.346 29.12C169.746 29.24 170.946 30.6 170.946 32.5C170.946 35 169.086 36 166.246 36ZM165.566 25.14H162.606V28.02H165.606C166.726 28.02 167.446 27.66 167.446 26.58C167.446 25.52 166.706 25.14 165.566 25.14ZM165.866 30.32H162.606V33.46H165.826C167.346 33.46 168.006 32.96 168.006 31.88C168.006 30.8 167.226 30.32 165.866 30.32ZM175.536 36H172.676V22.6H178.896C181.796 22.6 183.916 23.94 183.916 26.78C183.916 29.16 182.296 30.38 180.116 30.64C181.176 30.92 181.736 31.58 182.316 32.52L184.436 36H181.136L178.876 32.2C178.356 31.3 177.756 30.98 176.576 30.98H175.536V36ZM178.796 25.14H175.536V28.68H178.796C180.036 28.68 180.916 28.18 180.916 26.92C180.916 25.62 180.036 25.14 178.796 25.14ZM188.387 36H185.527V22.6H188.387V36ZM196.357 36H190.937V22.6H196.317C200.397 22.6 202.777 25.28 202.777 29.3C202.777 33.32 200.417 36 196.357 36ZM196.077 25.14H193.797V33.46H196.117C198.577 33.46 199.777 32.04 199.777 29.3C199.777 26.56 198.557 25.14 196.077 25.14ZM209.691 36.16C206.471 36.16 204.151 33.82 204.151 29.28C204.151 25.3 206.571 22.4 210.891 22.4C213.731 22.4 215.871 23.72 216.811 25.94L214.391 27.78C214.031 26.28 212.831 25.14 210.891 25.14C208.411 25.14 207.231 26.82 207.231 29.28C207.231 31.86 208.531 33.46 210.811 33.46C212.671 33.46 213.631 32.54 214.171 31.12H210.491V28.82H216.911V36H215.011L214.331 31.12C214.191 34.28 212.551 36.16 209.691 36.16ZM228.902 36H219.062V22.6H228.902V25.14H221.922V27.96H227.762V30.5H221.922V33.46H228.902V36Z" fill="#3E3EFA"/>
</svg>
