<svg width="275" height="46" viewBox="0 0 275 46" fill="none" xmlns="http://www.w3.org/2000/svg">
<mask id="mask0_140_1794" style="mask-type:luminance" maskUnits="userSpaceOnUse" x="0" y="0" width="48" height="46">
<path d="M48 0H0V46H48V0Z" fill="white"/>
</mask>
<g mask="url(#mask0_140_1794)">
<path d="M2.87593 19.052C2.21586 19.052 1.67969 19.5589 1.67969 20.1846C1.67969 20.81 2.21586 21.3176 2.87593 21.3176C3.537 21.3176 4.07301 20.81 4.07301 20.1846C4.07284 19.5589 3.537 19.052 2.87593 19.052Z" fill="#8F8F8F"/>
</g>
<mask id="mask1_140_1794" style="mask-type:luminance" maskUnits="userSpaceOnUse" x="0" y="0" width="48" height="46">
<path d="M48 0H0V46H48V0Z" fill="white"/>
</mask>
<g mask="url(#mask1_140_1794)">
<path d="M45.1273 19.052C44.4657 19.052 43.9297 19.5589 43.9297 20.1846C43.9297 20.81 44.4655 21.3176 45.1273 21.3176C45.7867 21.3176 46.3227 20.81 46.3227 20.1846C46.3228 19.5589 45.7867 19.052 45.1273 19.052Z" fill="#8F8F8F"/>
</g>
<mask id="mask2_140_1794" style="mask-type:luminance" maskUnits="userSpaceOnUse" x="0" y="0" width="48" height="46">
<path d="M48 0H0V46H48V0Z" fill="white"/>
</mask>
<g mask="url(#mask2_140_1794)">
<path d="M1.8125 13.7712L3.14471 11.2933L4.03828 11.7233L3.16822 13.3441L4.03526 13.7619L4.90584 12.1408L5.78262 12.5644L4.91205 14.1856L6.17208 14.7951L7.04618 13.1747L7.9431 13.6075L6.6077 16.0849L1.8125 13.7712ZM4.84641 8.9829L5.50798 8.24054L8.88267 10.9225L9.84221 9.83969L10.5912 10.4335L8.97114 12.2583L4.84641 8.9829ZM8.75845 5.11915L9.58638 4.547L12.1788 7.92172L13.3864 7.09274L13.959 7.8413L11.9236 9.24259L8.75845 5.11915ZM13.3901 2.40652L14.3096 1.99839L16.5844 6.61977L15.6649 7.02488L13.3901 2.40652ZM17.5238 0.779394L18.489 0.603141L21.4316 3.47676L20.7539 0.185631L21.7588 0L22.7868 5.00201L21.8211 5.18129L18.8852 2.31689L19.5562 5.59578L18.5513 5.78125L17.5238 0.779394ZM30.1704 1.48473L29.3589 2.06006C28.9725 1.54655 28.4815 1.24967 27.8795 1.16925C27.3522 1.09821 26.8907 1.20644 26.4885 1.48775C26.086 1.76937 25.8471 2.14667 25.7779 2.61695C25.7057 3.10566 25.8305 3.54176 26.1447 3.9286C26.4628 4.31814 26.8909 4.54716 27.4279 4.6182C27.7783 4.66492 28.0861 4.63377 28.3443 4.52856C28.606 4.41715 28.8326 4.22548 29.025 3.95005L27.4836 3.74297L27.6144 2.83993L30.2953 3.19847L30.2723 3.41176C30.2067 3.85406 30.0235 4.25631 29.7224 4.6182C29.4244 4.98326 29.0645 5.24311 28.6518 5.40093C28.236 5.55875 27.7719 5.5988 27.2547 5.53078C26.7012 5.45655 26.2236 5.28014 25.8242 4.99264C25.422 4.70799 25.1269 4.33991 24.9372 3.88505C24.7472 3.43051 24.6916 2.96008 24.764 2.47153C24.8622 1.80338 25.1795 1.25571 25.7198 0.822782C26.3611 0.309437 27.1237 0.11141 28.0106 0.22886C28.4756 0.290843 28.8978 0.426887 29.2741 0.64335C29.598 0.825961 29.8921 1.10743 30.1704 1.48473ZM32.8122 1.51588L36.4356 3.18925L35.9935 4.04923L34.6381 3.42415L32.7239 7.14233L31.7877 6.7094L33.7024 2.99139L32.3668 2.37585L32.8122 1.51588ZM40.2258 5.71339C40.792 6.19606 41.093 6.80508 41.1288 7.54156C41.1679 8.27487 40.9225 8.92124 40.3928 9.47781C39.8655 10.0315 39.2213 10.3282 38.4546 10.3685C37.6891 10.4088 37.0212 10.1863 36.4481 9.69745C35.8459 9.18411 35.5353 8.56523 35.5127 7.83209C35.4895 7.10212 35.7348 6.46497 36.249 5.92381C36.5923 5.56177 37.0012 5.30796 37.4763 5.16285C37.9508 5.01409 38.4318 4.99264 38.9263 5.09165C39.4173 5.18733 39.8521 5.39759 40.2258 5.71339ZM39.5446 6.41554C39.1748 6.09689 38.7492 5.95464 38.2646 5.98563C37.7808 6.01329 37.3581 6.21449 37.0012 6.59179C36.6054 7.0093 36.4481 7.4764 36.5335 7.9899C36.5988 8.39216 36.7925 8.72639 37.1098 8.99832C37.4731 9.3076 37.8951 9.44698 38.3829 9.41583C38.8739 9.38515 39.2896 9.18697 39.6364 8.82508C39.9804 8.46638 40.14 8.05189 40.1209 7.58177C40.1046 7.11452 39.911 6.72482 39.5446 6.41554ZM43.9894 9.7313L44.4935 10.5264L42.6475 14.1267L45.6851 12.401L46.2124 13.2302L41.5973 15.8565L41.0898 15.0582L42.9292 11.4636L39.9016 13.1866L39.3744 12.3544L43.9894 9.7313Z" fill="#8F8F8F"/>
</g>
<mask id="mask3_140_1794" style="mask-type:luminance" maskUnits="userSpaceOnUse" x="0" y="0" width="48" height="46">
<path d="M48 0H0V46H48V0Z" fill="white"/>
</mask>
<g mask="url(#mask3_140_1794)">
<path d="M5.01091 25.2447L5.2043 26.1905C5.31543 26.7321 5.36478 27.1002 5.35454 27.3009C5.34128 27.5824 5.24039 27.8303 5.05674 28.0435C4.87393 28.2569 4.61507 28.3933 4.28437 28.4551C3.95048 28.5171 3.6557 28.4829 3.40708 28.3527C3.15545 28.2256 2.96206 28.0218 2.82424 27.7402C2.72688 27.5361 2.61843 27.1404 2.49706 26.5493L2.42857 26.2127L0.0978681 26.6396L0 26.1662L5.01091 25.2447ZM4.62196 25.807L2.91976 26.1226L3.07319 26.9266C3.13866 27.2512 3.22041 27.4837 3.31241 27.6229C3.40708 27.7618 3.53164 27.8612 3.6886 27.9201C3.8459 27.9816 4.01276 27.997 4.18298 27.9634C4.3532 27.9325 4.4974 27.861 4.61826 27.7496C4.73963 27.6385 4.81786 27.5055 4.84674 27.3535C4.87712 27.2024 4.8605 26.967 4.7952 26.6455L4.62196 25.807ZM5.93789 28.9562L6.1437 29.399L3.32835 30.583C2.99463 30.7257 2.78865 30.8182 2.71311 30.8646C2.5397 30.9635 2.40893 31.0809 2.32416 31.2111C2.23552 31.3441 2.19288 31.5113 2.18617 31.7124C2.17996 31.9132 2.21957 32.0989 2.2973 32.2662C2.36629 32.411 2.4645 32.5382 2.59258 32.6431C2.71966 32.7516 2.86419 32.826 3.02434 32.8657C3.18164 32.9093 3.35471 32.9153 3.53836 32.8875C3.67265 32.8657 3.9216 32.7793 4.2879 32.6245L7.1024 31.4369L7.31224 31.8794L4.4974 33.0669C4.07806 33.2398 3.72453 33.3455 3.43327 33.3762C3.13866 33.4069 2.84422 33.3455 2.54323 33.1969C2.24492 33.0453 2.01947 32.8041 1.8657 32.4763C1.69532 32.121 1.64328 31.7772 1.70203 31.4492C1.76431 31.1183 1.92127 30.8494 2.17643 30.6388C2.33389 30.5058 2.64781 30.3416 3.12254 30.1437L5.93789 28.9562ZM7.94712 32.7923L8.53937 33.5622C8.77808 33.8746 8.91909 34.1378 8.97163 34.3578C9.02048 34.5766 9.0005 34.7905 8.91607 35.0006C8.82743 35.2042 8.68659 35.3781 8.49001 35.514C8.30687 35.6413 8.10727 35.7118 7.89156 35.7308C7.67551 35.7493 7.45627 35.706 7.23972 35.6066C7.32197 35.8606 7.35437 36.0772 7.34162 36.2532C7.32819 36.4329 7.27581 36.6001 7.18113 36.7539C7.08947 36.9122 6.96189 37.0483 6.79822 37.1594C6.46752 37.3855 6.10072 37.466 5.69515 37.3946C5.28924 37.3201 4.9394 37.0917 4.64093 36.7087L3.81618 35.6314L7.94712 32.7923ZM7.83599 33.4539L6.51368 34.3633L6.68759 34.5868C6.8934 34.8587 7.07302 35.0375 7.22327 35.1267C7.37754 35.2201 7.53769 35.2637 7.71143 35.2571C7.88132 35.2541 8.03878 35.2015 8.17929 35.106C8.36596 34.9757 8.46785 34.8118 8.48028 34.6135C8.4932 34.4126 8.39265 34.1778 8.18281 33.9056L7.83599 33.4539ZM6.09753 34.6481L4.51654 35.7366L4.88686 36.219C5.10559 36.507 5.29595 36.6955 5.45593 36.7881C5.61642 36.8782 5.79352 36.9245 5.97969 36.9181C6.16653 36.9122 6.33356 36.8598 6.48078 36.7573C6.66392 36.6309 6.77824 36.4634 6.8281 36.257C6.87695 36.0492 6.85328 35.8298 6.74937 35.5977C6.68357 35.4394 6.51956 35.1982 6.26742 34.8674L6.09753 34.6481ZM10.5753 35.8449L10.9448 36.1824L7.74081 39.3251L9.15159 40.6148L8.80745 40.9488L7.02719 39.3219L10.5753 35.8449ZM13.1514 37.8776L13.5703 38.1524L10.6408 42.1123L10.2218 41.8365L13.1514 37.8776ZM18.5286 41.4936L18.0381 41.605C17.9528 41.2674 17.7955 40.9775 17.5731 40.7294C17.3503 40.4786 17.0688 40.2841 16.7284 40.1384C16.3557 39.9834 15.9725 39.9221 15.5768 39.9558C15.1774 39.9933 14.8271 40.1166 14.5194 40.327C14.2087 40.5405 13.9691 40.8221 13.8028 41.1779C13.5506 41.7191 13.5342 42.2486 13.7539 42.7741C13.9757 43.2973 14.3821 43.6862 14.9775 43.9374C15.6288 44.2097 16.2899 44.1997 16.9577 43.9001L17.2001 44.3206C16.8368 44.4999 16.4442 44.5957 16.025 44.6018C15.6062 44.6086 15.1806 44.5223 14.7516 44.3397C13.9365 43.9966 13.4128 43.467 13.1838 42.756C12.994 42.1554 13.0435 41.5495 13.331 40.9338C13.6356 40.2873 14.1301 39.8447 14.8174 39.6064C15.5013 39.3652 16.205 39.3965 16.9253 39.7024C17.3606 39.8852 17.7171 40.1326 17.9888 40.4451C18.2637 40.7542 18.4432 41.1035 18.5286 41.4936ZM20.3458 44.8222L20.8038 44.6207C21.0495 45.1803 21.3698 45.4805 21.7693 45.5177C21.9362 45.5361 22.1024 45.5143 22.2604 45.4528C22.4173 45.394 22.5417 45.3042 22.6329 45.1863C22.7281 45.069 22.7804 44.9392 22.797 44.7971C22.8165 44.6329 22.7742 44.4721 22.6755 44.3049C22.5417 44.0763 22.2798 43.7884 21.8939 43.4487C21.5039 43.1018 21.2652 42.8577 21.1768 42.7119C21.023 42.4675 20.9607 42.214 20.9874 41.951C21.0133 41.7409 21.0851 41.5552 21.2093 41.3944C21.3342 41.2336 21.5009 41.1125 21.7035 41.0325C21.9063 40.9526 22.1194 40.9238 22.3453 40.9457C22.5844 40.9705 22.8036 41.0476 22.997 41.1808C23.193 41.3141 23.3896 41.5432 23.5892 41.8644L23.1437 42.1215C22.9802 41.8644 22.8335 41.6883 22.7054 41.5988C22.5813 41.5115 22.4368 41.4561 22.2798 41.4413C22.0735 41.4224 21.9001 41.4629 21.7561 41.5678C21.6152 41.6724 21.5333 41.8117 21.5138 41.9823C21.5039 42.0875 21.5138 42.1927 21.5498 42.2951C21.5859 42.3969 21.6574 42.5104 21.7658 42.6376C21.8251 42.7059 22.0279 42.8885 22.3683 43.1852C22.7742 43.535 23.0455 43.8379 23.1828 44.0949C23.3171 44.3516 23.3732 44.5992 23.347 44.8403C23.3079 45.1898 23.134 45.4773 22.8263 45.7057C22.5185 45.9347 22.1652 46.0312 21.7628 45.9911C21.4546 45.96 21.1835 45.8548 20.9513 45.675C20.7183 45.4934 20.5157 45.2087 20.3458 44.8222ZM29.3235 41.4964L28.9767 41.8462C28.7114 41.6078 28.4131 41.4438 28.0833 41.3477C27.7524 41.2552 27.402 41.2366 27.0356 41.292C26.633 41.351 26.2763 41.4996 25.9624 41.7316C25.6512 41.9665 25.4284 42.2512 25.2914 42.5883C25.1539 42.9255 25.118 43.2869 25.1798 43.6712C25.2782 44.2521 25.5694 44.707 26.0571 45.0318C26.5451 45.3602 27.1076 45.4746 27.7526 45.3783C28.4561 45.2731 29.003 44.9207 29.3928 44.3268L29.8378 44.553C29.6342 44.8931 29.3626 45.1742 29.0128 45.3971C28.6653 45.6196 28.26 45.7653 27.7949 45.8335C26.9147 45.9665 26.1717 45.7934 25.5694 45.3136C25.0618 44.9085 24.7542 44.3732 24.6428 43.7079C24.5251 43.0093 24.6852 42.3842 25.1239 41.8276C25.5624 41.2738 26.1716 40.9399 26.9501 40.8221C27.4215 40.7509 27.8605 40.7757 28.2691 40.8962C28.6787 41.0141 29.029 41.2148 29.3235 41.4964ZM29.8341 40.386L30.302 40.1881L31.1724 42.0382L33.5461 41.039L32.675 39.1861L33.1434 38.9907L35.2182 43.4052L34.7504 43.6029L33.749 41.4721L31.376 42.4715L32.3799 44.6018L31.9092 44.8001L29.8341 40.386ZM35.7618 37.1473C36.3602 36.687 37.0284 36.4914 37.7547 36.5596C38.4846 36.6311 39.0871 36.9436 39.5615 37.4969C40.0332 38.0476 40.2295 38.6689 40.1543 39.3585C40.0786 40.0518 39.748 40.6212 39.1689 41.067C38.5792 41.515 37.9216 41.7069 37.1889 41.6357C36.4621 41.5641 35.863 41.2582 35.4015 40.7169C35.091 40.3548 34.8976 39.9494 34.8192 39.5014C34.7371 39.053 34.7829 38.6201 34.9532 38.1993C35.1232 37.7821 35.3915 37.4318 35.7618 37.1473ZM36.0948 37.5C35.8006 37.7256 35.5877 38.0106 35.4474 38.3568C35.3106 38.7035 35.2704 39.053 35.3327 39.4116C35.3947 39.7711 35.5551 40.102 35.8137 40.4016C36.1936 40.847 36.678 41.098 37.2676 41.1563C37.8563 41.2119 38.3832 41.0633 38.8415 40.7105C39.1494 40.4759 39.3747 40.1881 39.5157 39.8447C39.6564 39.5046 39.6925 39.1552 39.6302 38.796C39.5684 38.4404 39.4079 38.1096 39.1524 37.8129C38.8973 37.512 38.5926 37.2988 38.2392 37.1721C37.8892 37.0421 37.5199 37.0084 37.1299 37.0669C36.7368 37.1257 36.3932 37.2709 36.0948 37.5ZM39.6399 33.3424C40.072 32.7367 40.6476 32.3651 41.3649 32.229C42.0849 32.096 42.7563 32.2257 43.3811 32.6286C44.003 33.0208 44.3827 33.5622 44.5236 34.2459C44.6641 34.9264 44.5273 35.5637 44.1076 36.1486C43.6856 36.742 43.1131 37.1074 42.3926 37.2404C41.6728 37.3765 41.0047 37.2463 40.3963 36.8566C39.9901 36.5968 39.6794 36.2656 39.4667 35.8577C39.2505 35.4498 39.1586 35.0226 39.1912 34.5737C39.2248 34.1278 39.3747 33.7169 39.6399 33.3424ZM40.0685 33.5898C39.8561 33.8837 39.7383 34.2179 39.7116 34.5866C39.6857 34.9569 39.761 35.3039 39.9282 35.6284C40.0984 35.9529 40.3535 36.2253 40.694 36.4423C41.1946 36.7641 41.7386 36.8685 42.3211 36.7605C42.8996 36.6521 43.3544 36.365 43.6856 35.9008C43.9078 35.5884 44.0322 35.2513 44.0619 34.8864C44.0913 34.5176 44.0193 34.1745 43.8489 33.85C43.6792 33.5254 43.4235 33.256 43.0863 33.0393C42.7527 32.8261 42.3958 32.7049 42.0196 32.6801C41.6428 32.6558 41.2765 32.7238 40.9231 32.891C40.5664 33.0548 40.2813 33.2867 40.0685 33.5898ZM41.4994 30.586L41.6728 30.1289L46.0096 31.6227L46.6768 29.8778L47.142 30.0388L46.2946 32.2381L41.4994 30.586ZM46.5887 28.6843L46.4249 28.2297C47.0371 28.0592 47.3839 27.7869 47.469 27.4155C47.5021 27.2582 47.4989 27.1004 47.4496 26.9454C47.4041 26.7908 47.3257 26.6641 47.2073 26.5652C47.093 26.4629 46.9621 26.4011 46.8148 26.3704C46.648 26.3361 46.4712 26.3577 46.2882 26.4322C46.0326 26.537 45.7052 26.7539 45.3057 27.0821C44.8999 27.4125 44.6188 27.6108 44.4579 27.679C44.1862 27.7995 43.911 27.8305 43.6364 27.7776C43.42 27.7312 43.2337 27.6445 43.077 27.5088C42.9198 27.3756 42.812 27.2084 42.7462 27.0077C42.6841 26.8095 42.6772 26.6058 42.7232 26.3952C42.7756 26.1695 42.8806 25.9743 43.0405 25.8036C43.1979 25.6341 43.4593 25.4732 43.8199 25.3183L44.042 25.7671C43.7544 25.8933 43.5548 26.0111 43.4501 26.1226C43.3414 26.231 43.2703 26.3609 43.2367 26.5061C43.1947 26.6981 43.2209 26.8648 43.3156 27.0133C43.4103 27.1585 43.5481 27.2482 43.7282 27.2822C43.8362 27.3074 43.9444 27.3074 44.0589 27.2822C44.1701 27.2612 44.2976 27.2053 44.4417 27.115C44.5204 27.0662 44.7329 26.8957 45.0764 26.6053C45.489 26.2618 45.8358 26.0362 46.1207 25.9333C46.4027 25.8345 46.6674 25.8067 46.9196 25.8564C47.2825 25.9305 47.5669 26.1225 47.7767 26.4381C47.9832 26.7536 48.0488 27.094 47.9636 27.4681C47.8978 27.7556 47.7605 28.0002 47.5449 28.2014C47.3319 28.4026 47.0109 28.5633 46.5887 28.6843Z" fill="#8F8F8F"/>
</g>
<mask id="mask4_140_1794" style="mask-type:luminance" maskUnits="userSpaceOnUse" x="0" y="0" width="48" height="46">
<path d="M48 0H0V46H48V0Z" fill="white"/>
</mask>
<g mask="url(#mask4_140_1794)">
<path fill-rule="evenodd" clip-rule="evenodd" d="M23.6411 24.9956C20.7317 22.1721 16.7544 21.6613 12.6367 22.1759L15.1862 32.7053C17.8657 32.6105 20.7243 34.213 23.6411 36.416V24.9956Z" fill="#8F8F8F"/>
</g>
<mask id="mask5_140_1794" style="mask-type:luminance" maskUnits="userSpaceOnUse" x="0" y="0" width="48" height="46">
<path d="M48 0H0V46H48V0Z" fill="white"/>
</mask>
<g mask="url(#mask5_140_1794)">
<path fill-rule="evenodd" clip-rule="evenodd" d="M14.4258 19.3948C18.2284 20.2223 21.3865 21.8425 23.6052 24.6129C22.1617 23.2857 20.4753 22.4953 18.6504 22.0909C17.3027 21.7903 15.8802 21.7045 14.4258 21.7719V19.3948Z" fill="#8F8F8F"/>
</g>
<mask id="mask6_140_1794" style="mask-type:luminance" maskUnits="userSpaceOnUse" x="0" y="0" width="48" height="46">
<path d="M48 0H0V46H48V0Z" fill="white"/>
</mask>
<g mask="url(#mask6_140_1794)">
<path d="M26.4329 23.3397C27.3041 22.8775 28.2309 22.5481 29.2029 22.3308C31.0332 21.9213 33.013 21.9271 35.0176 22.1759L35.3657 22.2193L35.2863 22.543L32.849 32.6244L32.7872 32.8706L32.523 32.8598C31.2977 32.8166 30.0226 33.1629 28.7134 33.7767C27.946 34.1386 27.1641 34.5958 26.3711 35.1161C26.3943 34.8496 26.4221 34.5848 26.4445 34.3412C27.107 33.9199 27.777 33.5491 28.4339 33.2371C29.7433 32.6246 31.0295 32.2602 32.2887 32.2525L34.5915 22.7348C32.7767 22.5324 30.9954 22.5538 29.3488 22.9205C28.3048 23.149 27.3167 23.5211 26.4 24.0624C26.4058 23.8489 26.4221 23.6058 26.4329 23.3397Z" fill="#8F8F8F"/>
</g>
<mask id="mask7_140_1794" style="mask-type:luminance" maskUnits="userSpaceOnUse" x="0" y="0" width="48" height="46">
<path d="M48 0H0V46H48V0Z" fill="white"/>
</mask>
<g mask="url(#mask7_140_1794)">
<path fill-rule="evenodd" clip-rule="evenodd" d="M24.9696 35.9169C24.6481 34.2983 23.9276 32.2647 24.3706 30.454C24.9776 27.988 27.5265 27.0597 29.4661 25.5955C30.3479 24.9326 31.0824 24.2531 31.0824 24.2531C31.5264 29.2005 30.1438 32.1854 26.3681 34.9952C25.5757 31.953 26.5892 29.1264 29.2464 27.2684C25.7471 28.9522 24.7641 32.2364 25.2407 35.7201C25.0839 35.8587 25.1332 35.78 24.9696 35.9169Z" fill="#8F8F8F"/>
</g>
<mask id="mask8_140_1794" style="mask-type:luminance" maskUnits="userSpaceOnUse" x="0" y="0" width="48" height="46">
<path d="M48 0H0V46H48V0Z" fill="white"/>
</mask>
<g mask="url(#mask8_140_1794)">
<path fill-rule="evenodd" clip-rule="evenodd" d="M24.2835 31.8091C24.5935 31.8188 24.9026 31.9295 25.1532 32.1716C25.4141 27.8534 27.9409 21.4899 23.1836 18.1938C26.7139 22.2664 24.0567 27.7597 24.2835 31.8091Z" fill="#8F8F8F"/>
</g>
<mask id="mask9_140_1794" style="mask-type:luminance" maskUnits="userSpaceOnUse" x="0" y="0" width="48" height="46">
<path d="M48 0H0V46H48V0Z" fill="white"/>
</mask>
<g mask="url(#mask9_140_1794)">
<path fill-rule="evenodd" clip-rule="evenodd" d="M30.2673 17.7701C28.1021 19.0285 27.0079 20.158 26.0469 21.5231C26.1291 21.7863 26.1939 22.0547 26.2475 22.3274C26.8456 21.8572 27.4835 21.4352 28.16 21.0622C28.9369 20.6324 29.7625 20.2602 30.6327 19.9481L30.2673 17.7701Z" fill="#8F8F8F"/>
</g>
<mask id="mask10_140_1794" style="mask-type:luminance" maskUnits="userSpaceOnUse" x="0" y="0" width="48" height="46">
<path d="M48 0H0V46H48V0Z" fill="white"/>
</mask>
<g mask="url(#mask10_140_1794)">
<path fill-rule="evenodd" clip-rule="evenodd" d="M26.3008 22.6131C26.3292 22.7879 26.3523 22.9642 26.371 23.1419C27.2773 22.6565 28.2439 22.3143 29.2529 22.0907C30.6004 21.7903 32.0235 21.7045 33.4774 21.7719V19.3948C30.7033 19.9987 28.2739 21.0268 26.3008 22.6131Z" fill="#8F8F8F"/>
</g>
<mask id="mask11_140_1794" style="mask-type:luminance" maskUnits="userSpaceOnUse" x="0" y="0" width="48" height="46">
<path d="M48 0H0V46H48V0Z" fill="white"/>
</mask>
<g mask="url(#mask11_140_1794)">
<path fill-rule="evenodd" clip-rule="evenodd" d="M25.3349 22.2529C24.7289 20.8501 23.3154 20.5373 22.1553 19.8493C21.6297 19.5371 21.1719 19.2043 21.1719 19.2043C21.5409 22.1767 22.4153 23.4568 24.6755 24.7667C24.4932 23.4058 24.0445 21.6705 22.4665 20.824C24.4522 21.4917 25.1126 24.2292 25.0391 25.8489C25.0391 25.8489 25.7764 23.282 25.3349 22.2529Z" fill="#8F8F8F"/>
</g>
<mask id="mask12_140_1794" style="mask-type:luminance" maskUnits="userSpaceOnUse" x="0" y="0" width="48" height="46">
<path d="M48 0H0V46H48V0Z" fill="white"/>
</mask>
<g mask="url(#mask12_140_1794)">
<path fill-rule="evenodd" clip-rule="evenodd" d="M20.959 20.382C20.1663 19.4897 19.1702 18.6622 17.635 17.7701L17.2695 19.9481C18.1396 20.2604 18.9654 20.6324 19.7417 21.0622C20.3879 21.4179 20.9966 21.819 21.5702 22.2631C21.3034 21.7289 21.1049 21.1169 20.959 20.382Z" fill="#8F8F8F"/>
</g>
<mask id="mask13_140_1794" style="mask-type:luminance" maskUnits="userSpaceOnUse" x="0" y="0" width="48" height="46">
<path d="M48 0H0V46H48V0Z" fill="white"/>
</mask>
<g mask="url(#mask13_140_1794)">
<path d="M25.6203 18.494C25.0219 18.6848 24.3677 18.5041 23.7283 17.9712C23.7071 17.9534 23.6868 17.9359 23.6668 17.9187C23.4395 17.725 23.3143 17.618 22.698 17.8057C21.6702 18.1187 21.0677 17.8612 20.7432 17.5899C20.2777 17.2021 20.1097 16.5683 20.2701 15.8057C20.2792 15.7612 20.2893 15.7194 20.2987 15.6797C20.3682 15.3862 20.3974 15.2646 19.9524 14.8804C19.3207 14.3352 19.0512 13.7449 19.1731 13.1737C19.2567 12.7781 19.5706 12.2333 20.5896 11.8841C20.6354 11.8686 20.6811 11.8547 20.7262 11.8412C20.7533 11.8331 20.7795 11.825 20.8061 11.8167C20.9972 11.7559 21.1948 11.6926 21.3032 11.175C21.4704 10.3767 21.8768 9.85348 22.4781 9.66181C23.1261 9.4552 23.8283 9.66467 24.4548 10.2514C24.7704 10.5466 24.8394 10.5251 25.1723 10.4218C25.2117 10.4096 25.255 10.3961 25.301 10.3826C26.3346 10.0777 26.9327 10.3309 27.2522 10.5974C27.6777 10.9518 27.8424 11.4886 27.7573 12.2382C27.7479 12.3193 27.7351 12.3938 27.7244 12.4595C27.6695 12.781 27.6416 12.9423 28.1192 13.3665C28.7006 13.882 28.944 14.4518 28.8239 15.0143C28.7365 15.4245 28.4187 15.981 27.4034 16.3046L27.3344 16.3281C27.0173 16.4345 26.9317 16.4631 26.7989 16.9891C26.5893 17.8157 26.2035 18.3081 25.6203 18.494ZM20.7541 12.1947C20.741 12.199 20.7274 12.2037 20.7138 12.2079C20.0331 12.4412 19.4467 12.7571 19.3531 13.2002C19.2564 13.653 19.6579 14.1602 20.1976 14.626C20.7697 15.1196 20.7437 15.3766 20.6541 15.755C20.6452 15.7924 20.6361 15.8315 20.6274 15.8728C20.4914 16.5192 20.4634 17.1307 20.8328 17.4389C21.1969 17.7431 21.902 17.6862 22.5867 17.4778C23.3458 17.2466 23.6039 17.4011 23.9099 17.663C23.9294 17.6789 23.9492 17.6956 23.9691 17.7124C24.3428 18.0241 24.9693 18.5343 25.5611 18.3459C26.0162 18.2007 26.2673 17.6107 26.4452 16.9089C26.6166 16.2307 26.8155 16.1366 27.2129 16.0034L27.2832 15.9794C28.138 15.707 28.5755 15.2905 28.6438 14.9693C28.739 14.5236 28.3613 14.0532 27.8706 13.6179C27.2812 13.095 27.2946 12.8161 27.365 12.4042C27.3766 12.3401 27.3871 12.2732 27.396 12.201C27.4676 11.5709 27.5082 11.042 27.1783 10.7667C26.8202 10.4685 26.0994 10.508 25.4091 10.7114C25.365 10.7246 25.3244 10.737 25.2856 10.7494C24.8829 10.8743 24.6517 10.9199 24.1995 10.4965C23.6752 10.0061 23.0507 9.67452 22.5402 9.83727C21.9453 10.0267 21.7581 10.7746 21.6606 11.2421C21.5226 11.9005 21.2074 12.0524 20.9228 12.1432C20.8943 12.1522 20.8654 12.1608 20.8365 12.1697C20.809 12.1778 20.782 12.1861 20.7541 12.1947Z" fill="#8F8F8F"/>
</g>
<mask id="mask14_140_1794" style="mask-type:luminance" maskUnits="userSpaceOnUse" x="0" y="0" width="48" height="46">
<path d="M48 0H0V46H48V0Z" fill="white"/>
</mask>
<g mask="url(#mask14_140_1794)">
<path fill-rule="evenodd" clip-rule="evenodd" d="M22.7327 10.3691C23.3983 10.1569 24.3157 10.9622 25.0365 12.2802L25.0271 12.2834C24.4112 11.1923 23.6602 10.5334 23.1218 10.7051C22.3924 10.9376 22.3261 12.6019 22.9734 14.4218C23.6207 16.2419 24.7369 17.5287 25.4665 17.2962C26.005 17.1247 26.1821 16.1699 25.9751 14.9485L25.9845 14.9453C26.2531 16.4076 26.037 17.5743 25.3714 17.7867C24.5093 18.0615 23.2188 16.6233 22.4905 14.5758C21.7619 12.5285 21.8705 10.6439 22.7327 10.3691Z" fill="#8F8F8F"/>
</g>
<mask id="mask15_140_1794" style="mask-type:luminance" maskUnits="userSpaceOnUse" x="0" y="0" width="48" height="46">
<path d="M48 0H0V46H48V0Z" fill="white"/>
</mask>
<g mask="url(#mask15_140_1794)">
<path fill-rule="evenodd" clip-rule="evenodd" d="M26.7337 11.1578C26.2068 10.7191 25.0315 11.1252 23.8277 12.0773L23.8354 12.0821C24.8495 11.303 25.8111 10.9694 26.2377 11.3259C26.815 11.8067 26.1949 13.3658 24.8547 14.807C23.514 16.247 21.959 17.0247 21.3812 16.5442C20.9543 16.1874 21.1814 15.2421 21.8714 14.1919L21.8646 14.1855C21.0181 15.435 20.7411 16.5914 21.2677 17.0301C21.9494 17.6 23.7278 16.7469 25.236 15.1256C26.7453 13.5034 27.4166 11.7275 26.7337 11.1578Z" fill="#8F8F8F"/>
</g>
<mask id="mask16_140_1794" style="mask-type:luminance" maskUnits="userSpaceOnUse" x="0" y="0" width="48" height="46">
<path d="M48 0H0V46H48V0Z" fill="white"/>
</mask>
<g mask="url(#mask16_140_1794)">
<path fill-rule="evenodd" clip-rule="evenodd" d="M28.0518 14.8666C27.9127 15.5175 26.7173 15.8672 25.1507 15.799L25.1536 15.7906C26.4587 15.8301 27.4374 15.5452 27.5494 15.0169C27.7018 14.3031 26.2118 13.4171 24.2239 13.0371C22.2361 12.6585 20.5005 12.9301 20.3478 13.6436C20.236 14.172 21.0209 14.7947 22.2412 15.2356L22.24 15.2445C20.7676 14.7345 19.8081 13.9724 19.9469 13.3214C20.1255 12.477 22.0869 12.1379 24.3238 12.5652C26.5627 12.9921 28.2316 14.0215 28.0518 14.8666Z" fill="#8F8F8F"/>
</g>
<path d="M57.7682 30V16H66.9082V18.06H60.3282V21.9H66.3082V23.9H60.3282V27.94H66.9082V30H57.7682ZM69.2707 30V15.6H71.8307V30H69.2707ZM74.4465 30V15.6H77.0065V30H74.4465ZM81.0023 18.54C80.5356 18.54 80.1489 18.4 79.8423 18.12C79.5489 17.84 79.4023 17.4867 79.4023 17.06C79.4023 16.6333 79.5489 16.2867 79.8423 16.02C80.1489 15.74 80.5356 15.6 81.0023 15.6C81.4689 15.6 81.8489 15.74 82.1423 16.02C82.4489 16.2867 82.6023 16.6333 82.6023 17.06C82.6023 17.4867 82.4489 17.84 82.1423 18.12C81.8489 18.4 81.4689 18.54 81.0023 18.54ZM79.7223 30V20.08H82.2823V30H79.7223ZM84.9543 30V20.08H87.2143L87.4143 21.76C87.721 21.1733 88.161 20.7067 88.7343 20.36C89.321 20.0133 90.0076 19.84 90.7943 19.84C92.021 19.84 92.9743 20.2267 93.6543 21C94.3343 21.7733 94.6743 22.9067 94.6743 24.4V30H92.1143V24.64C92.1143 23.7867 91.941 23.1333 91.5943 22.68C91.2476 22.2267 90.7076 22 89.9743 22C89.2543 22 88.661 22.2533 88.1943 22.76C87.741 23.2667 87.5143 23.9733 87.5143 24.88V30H84.9543ZM101.322 27.04C100.842 27.04 100.396 26.9867 99.9823 26.88L99.2423 27.62C99.4689 27.74 99.7756 27.84 100.162 27.92C100.549 28 101.176 28.08 102.042 28.16C103.362 28.28 104.322 28.5933 104.922 29.1C105.522 29.6067 105.822 30.3067 105.822 31.2C105.822 31.7867 105.662 32.34 105.342 32.86C105.022 33.3933 104.529 33.82 103.862 34.14C103.196 34.4733 102.342 34.64 101.302 34.64C99.8889 34.64 98.7489 34.3733 97.8823 33.84C97.0156 33.32 96.5823 32.5333 96.5823 31.48C96.5823 30.5867 97.0156 29.8133 97.8823 29.16C97.6156 29.04 97.3823 28.9133 97.1823 28.78C96.9956 28.6467 96.8289 28.5067 96.6823 28.36V27.9L98.4223 26.06C97.6489 25.38 97.2623 24.5067 97.2623 23.44C97.2623 22.7733 97.4223 22.1667 97.7423 21.62C98.0756 21.0733 98.5423 20.64 99.1423 20.32C99.7423 20 100.469 19.84 101.322 19.84C101.882 19.84 102.402 19.92 102.882 20.08H106.642V21.64L104.942 21.76C105.209 22.2667 105.342 22.8267 105.342 23.44C105.342 24.1067 105.182 24.7133 104.862 25.26C104.542 25.8067 104.076 26.24 103.462 26.56C102.862 26.88 102.149 27.04 101.322 27.04ZM101.322 25.08C101.842 25.08 102.269 24.94 102.602 24.66C102.949 24.38 103.122 23.98 103.122 23.46C103.122 22.94 102.949 22.54 102.602 22.26C102.269 21.98 101.842 21.84 101.322 21.84C100.776 21.84 100.336 21.98 100.002 22.26C99.6689 22.54 99.5023 22.94 99.5023 23.46C99.5023 23.98 99.6689 24.38 100.002 24.66C100.336 24.94 100.776 25.08 101.322 25.08ZM98.9223 31.22C98.9223 31.7133 99.1489 32.08 99.6023 32.32C100.069 32.5733 100.636 32.7 101.302 32.7C101.942 32.7 102.462 32.5667 102.862 32.3C103.262 32.0467 103.462 31.7 103.462 31.26C103.462 30.9 103.329 30.6 103.062 30.36C102.809 30.12 102.296 29.9733 101.522 29.92C100.976 29.88 100.469 29.82 100.002 29.74C99.6156 29.9533 99.3356 30.1867 99.1623 30.44C99.0023 30.6933 98.9223 30.9533 98.9223 31.22ZM112.929 30C111.889 30 111.056 29.7467 110.429 29.24C109.802 28.7333 109.489 27.8333 109.489 26.54V22.22H107.789V20.08H109.489L109.789 17.42H112.049V20.08H114.729V22.22H112.049V26.56C112.049 27.04 112.149 27.3733 112.349 27.56C112.562 27.7333 112.922 27.82 113.429 27.82H114.669V30H112.929ZM121.433 30.24C120.473 30.24 119.606 30.02 118.833 29.58C118.073 29.14 117.466 28.5333 117.013 27.76C116.573 26.9733 116.353 26.0667 116.353 25.04C116.353 24.0133 116.58 23.1133 117.033 22.34C117.486 21.5533 118.093 20.94 118.853 20.5C119.626 20.06 120.493 19.84 121.453 19.84C122.4 19.84 123.253 20.06 124.013 20.5C124.786 20.94 125.393 21.5533 125.833 22.34C126.286 23.1133 126.513 24.0133 126.513 25.04C126.513 26.0667 126.286 26.9733 125.833 27.76C125.393 28.5333 124.786 29.14 124.013 29.58C123.24 30.02 122.38 30.24 121.433 30.24ZM121.433 28.02C122.1 28.02 122.68 27.7733 123.173 27.28C123.666 26.7733 123.913 26.0267 123.913 25.04C123.913 24.0533 123.666 23.3133 123.173 22.82C122.68 22.3133 122.106 22.06 121.453 22.06C120.773 22.06 120.186 22.3133 119.693 22.82C119.213 23.3133 118.973 24.0533 118.973 25.04C118.973 26.0267 119.213 26.7733 119.693 27.28C120.186 27.7733 120.766 28.02 121.433 28.02ZM128.802 30V20.08H131.062L131.262 21.76C131.569 21.1733 132.009 20.7067 132.582 20.36C133.169 20.0133 133.855 19.84 134.642 19.84C135.869 19.84 136.822 20.2267 137.502 21C138.182 21.7733 138.522 22.9067 138.522 24.4V30H135.962V24.64C135.962 23.7867 135.789 23.1333 135.442 22.68C135.095 22.2267 134.555 22 133.822 22C133.102 22 132.509 22.2533 132.042 22.76C131.589 23.2667 131.362 23.9733 131.362 24.88V30H128.802ZM145.796 30V16H150.976C152.096 16 153.022 16.1867 153.756 16.56C154.489 16.9333 155.036 17.4467 155.396 18.1C155.756 18.7533 155.936 19.4867 155.936 20.3C155.936 21.0733 155.762 21.7867 155.416 22.44C155.069 23.08 154.529 23.6 153.796 24C153.062 24.3867 152.122 24.58 150.976 24.58H148.356V30H145.796ZM148.356 22.5H150.816C151.709 22.5 152.349 22.3067 152.736 21.92C153.136 21.52 153.336 20.98 153.336 20.3C153.336 19.6067 153.136 19.0667 152.736 18.68C152.349 18.28 151.709 18.08 150.816 18.08H148.356V22.5ZM161.604 30.24C160.364 30.24 159.404 29.8533 158.724 29.08C158.057 28.3067 157.724 27.1733 157.724 25.68V20.08H160.264V25.44C160.264 26.2933 160.437 26.9467 160.784 27.4C161.131 27.8533 161.677 28.08 162.424 28.08C163.131 28.08 163.711 27.8267 164.164 27.32C164.631 26.8133 164.864 26.1067 164.864 25.2V20.08H167.424V30H165.164L164.964 28.32C164.657 28.9067 164.211 29.3733 163.624 29.72C163.051 30.0667 162.377 30.24 161.604 30.24ZM175.932 30.24C175.185 30.24 174.532 30.1 173.972 29.82C173.412 29.54 172.959 29.1467 172.612 28.64L172.332 30H170.052V15.6H172.612V21.5C172.932 21.06 173.352 20.6733 173.872 20.34C174.405 20.0067 175.092 19.84 175.932 19.84C176.865 19.84 177.699 20.0667 178.432 20.52C179.165 20.9733 179.745 21.5933 180.172 22.38C180.599 23.1667 180.812 24.06 180.812 25.06C180.812 26.06 180.599 26.9533 180.172 27.74C179.745 28.5133 179.165 29.1267 178.432 29.58C177.699 30.02 176.865 30.24 175.932 30.24ZM175.392 28C176.205 28 176.879 27.7267 177.412 27.18C177.945 26.6333 178.212 25.9267 178.212 25.06C178.212 24.1933 177.945 23.48 177.412 22.92C176.879 22.36 176.205 22.08 175.392 22.08C174.565 22.08 173.885 22.36 173.352 22.92C172.832 23.4667 172.572 24.1733 172.572 25.04C172.572 25.9067 172.832 26.62 173.352 27.18C173.885 27.7267 174.565 28 175.392 28ZM183.099 30V15.6H185.659V30H183.099ZM189.655 18.54C189.188 18.54 188.801 18.4 188.495 18.12C188.201 17.84 188.055 17.4867 188.055 17.06C188.055 16.6333 188.201 16.2867 188.495 16.02C188.801 15.74 189.188 15.6 189.655 15.6C190.121 15.6 190.501 15.74 190.795 16.02C191.101 16.2867 191.255 16.6333 191.255 17.06C191.255 17.4867 191.101 17.84 190.795 18.12C190.501 18.4 190.121 18.54 189.655 18.54ZM188.375 30V20.08H190.935V30H188.375ZM198.467 30.24C197.453 30.24 196.56 30.02 195.787 29.58C195.013 29.14 194.4 28.5267 193.947 27.74C193.507 26.9533 193.287 26.0533 193.287 25.04C193.287 24.0267 193.507 23.1267 193.947 22.34C194.4 21.5533 195.013 20.94 195.787 20.5C196.56 20.06 197.453 19.84 198.467 19.84C199.733 19.84 200.8 20.1733 201.667 20.84C202.533 21.4933 203.087 22.4 203.327 23.56H200.627C200.493 23.08 200.227 22.7067 199.827 22.44C199.44 22.16 198.98 22.02 198.447 22.02C197.74 22.02 197.14 22.2867 196.647 22.82C196.153 23.3533 195.907 24.0933 195.907 25.04C195.907 25.9867 196.153 26.7267 196.647 27.26C197.14 27.7933 197.74 28.06 198.447 28.06C198.98 28.06 199.44 27.9267 199.827 27.66C200.227 27.3933 200.493 27.0133 200.627 26.52H203.327C203.087 27.64 202.533 28.54 201.667 29.22C200.8 29.9 199.733 30.24 198.467 30.24ZM215.204 30.24C214.178 30.24 213.271 30.0667 212.484 29.72C211.698 29.36 211.078 28.8533 210.624 28.2C210.171 27.5333 209.938 26.7267 209.924 25.78H212.624C212.651 26.4333 212.884 26.9867 213.324 27.44C213.778 27.88 214.398 28.1 215.184 28.1C215.864 28.1 216.404 27.94 216.804 27.62C217.204 27.2867 217.404 26.8467 217.404 26.3C217.404 25.7267 217.224 25.28 216.864 24.96C216.518 24.64 216.051 24.38 215.464 24.18C214.878 23.98 214.251 23.7667 213.584 23.54C212.504 23.1667 211.678 22.6867 211.104 22.1C210.544 21.5133 210.264 20.7333 210.264 19.76C210.251 18.9333 210.444 18.2267 210.844 17.64C211.258 17.04 211.818 16.58 212.524 16.26C213.231 15.9267 214.044 15.76 214.964 15.76C215.898 15.76 216.718 15.9267 217.424 16.26C218.144 16.5933 218.704 17.06 219.104 17.66C219.518 18.26 219.738 18.9733 219.764 19.8H217.024C217.011 19.3067 216.818 18.8733 216.444 18.5C216.084 18.1133 215.578 17.92 214.924 17.92C214.364 17.9067 213.891 18.0467 213.504 18.34C213.131 18.62 212.944 19.0333 212.944 19.58C212.944 20.0467 213.091 20.42 213.384 20.7C213.678 20.9667 214.078 21.1933 214.584 21.38C215.091 21.5667 215.671 21.7667 216.324 21.98C217.018 22.22 217.651 22.5 218.224 22.82C218.798 23.14 219.258 23.5667 219.604 24.1C219.951 24.62 220.124 25.2933 220.124 26.12C220.124 26.8533 219.938 27.5333 219.564 28.16C219.191 28.7867 218.638 29.2933 217.904 29.68C217.171 30.0533 216.271 30.24 215.204 30.24ZM227.158 30.24C226.145 30.24 225.251 30.02 224.478 29.58C223.705 29.14 223.091 28.5267 222.638 27.74C222.198 26.9533 221.978 26.0533 221.978 25.04C221.978 24.0267 222.198 23.1267 222.638 22.34C223.091 21.5533 223.705 20.94 224.478 20.5C225.251 20.06 226.145 19.84 227.158 19.84C228.425 19.84 229.491 20.1733 230.358 20.84C231.225 21.4933 231.778 22.4 232.018 23.56H229.318C229.185 23.08 228.918 22.7067 228.518 22.44C228.131 22.16 227.671 22.02 227.138 22.02C226.431 22.02 225.831 22.2867 225.338 22.82C224.845 23.3533 224.598 24.0933 224.598 25.04C224.598 25.9867 224.845 26.7267 225.338 27.26C225.831 27.7933 226.431 28.06 227.138 28.06C227.671 28.06 228.131 27.9267 228.518 27.66C228.918 27.3933 229.185 27.0133 229.318 26.52H232.018C231.778 27.64 231.225 28.54 230.358 29.22C229.491 29.9 228.425 30.24 227.158 30.24ZM234.29 30V15.6H236.85V21.6C237.184 21.0533 237.63 20.6267 238.19 20.32C238.764 20 239.417 19.84 240.15 19.84C241.377 19.84 242.324 20.2267 242.99 21C243.67 21.7733 244.01 22.9067 244.01 24.4V30H241.47V24.64C241.47 23.7867 241.297 23.1333 240.95 22.68C240.617 22.2267 240.084 22 239.35 22C238.63 22 238.03 22.2533 237.55 22.76C237.084 23.2667 236.85 23.9733 236.85 24.88V30H234.29ZM251.218 30.24C250.258 30.24 249.392 30.02 248.618 29.58C247.858 29.14 247.252 28.5333 246.798 27.76C246.358 26.9733 246.138 26.0667 246.138 25.04C246.138 24.0133 246.365 23.1133 246.818 22.34C247.272 21.5533 247.878 20.94 248.638 20.5C249.412 20.06 250.278 19.84 251.238 19.84C252.185 19.84 253.038 20.06 253.798 20.5C254.572 20.94 255.178 21.5533 255.618 22.34C256.072 23.1133 256.298 24.0133 256.298 25.04C256.298 26.0667 256.072 26.9733 255.618 27.76C255.178 28.5333 254.572 29.14 253.798 29.58C253.025 30.02 252.165 30.24 251.218 30.24ZM251.218 28.02C251.885 28.02 252.465 27.7733 252.958 27.28C253.452 26.7733 253.698 26.0267 253.698 25.04C253.698 24.0533 253.452 23.3133 252.958 22.82C252.465 22.3133 251.892 22.06 251.238 22.06C250.558 22.06 249.972 22.3133 249.478 22.82C248.998 23.3133 248.758 24.0533 248.758 25.04C248.758 26.0267 248.998 26.7733 249.478 27.28C249.972 27.7733 250.552 28.02 251.218 28.02ZM263.347 30.24C262.387 30.24 261.52 30.02 260.747 29.58C259.987 29.14 259.38 28.5333 258.927 27.76C258.487 26.9733 258.267 26.0667 258.267 25.04C258.267 24.0133 258.494 23.1133 258.947 22.34C259.4 21.5533 260.007 20.94 260.767 20.5C261.54 20.06 262.407 19.84 263.367 19.84C264.314 19.84 265.167 20.06 265.927 20.5C266.7 20.94 267.307 21.5533 267.747 22.34C268.2 23.1133 268.427 24.0133 268.427 25.04C268.427 26.0667 268.2 26.9733 267.747 27.76C267.307 28.5333 266.7 29.14 265.927 29.58C265.154 30.02 264.294 30.24 263.347 30.24ZM263.347 28.02C264.014 28.02 264.594 27.7733 265.087 27.28C265.58 26.7733 265.827 26.0267 265.827 25.04C265.827 24.0533 265.58 23.3133 265.087 22.82C264.594 22.3133 264.02 22.06 263.367 22.06C262.687 22.06 262.1 22.3133 261.607 22.82C261.127 23.3133 260.887 24.0533 260.887 25.04C260.887 26.0267 261.127 26.7733 261.607 27.28C262.1 27.7733 262.68 28.02 263.347 28.02ZM270.716 30V15.6H273.276V30H270.716Z" fill="#8F8F8F"/>
</svg>
