<svg width="199" height="46" viewBox="0 0 199 46" fill="none" xmlns="http://www.w3.org/2000/svg">
<g clip-path="url(#clip0_140_1783)">
<path fill-rule="evenodd" clip-rule="evenodd" d="M11.5 0C17.8512 0 23 5.14872 23 11.5V0H34.5C40.8512 0 46 5.14872 46 11.5C46 17.8512 40.8512 23 34.5 23C40.8512 23 46 28.1488 46 34.5C46 37.6536 44.7305 40.5108 42.6748 42.5884L42.6318 42.6318L42.5936 42.6697C40.5155 44.7284 37.6563 46 34.5 46C31.3652 46 28.5233 44.7457 26.4489 42.7116C26.4219 42.6851 26.395 42.6584 26.3682 42.6318C26.3431 42.6066 26.318 42.5813 26.293 42.5559C24.2563 40.481 23 37.6372 23 34.5C23 40.8512 17.8512 46 11.5 46C5.14872 46 0 40.8512 0 34.5V23H11.5C5.14872 23 0 17.8512 0 11.5C0 5.14872 5.14872 0 11.5 0ZM20.7 11.5C20.7 16.581 16.581 20.7 11.5 20.7V2.3C16.581 2.3 20.7 6.41898 20.7 11.5ZM43.7 34.5C43.7 29.419 39.581 25.3 34.5 25.3C29.419 25.3 25.3 29.419 25.3 34.5H43.7ZM2.3 25.3V34.5C2.3 39.581 6.41898 43.7 11.5 43.7C16.581 43.7 20.7 39.581 20.7 34.5V25.3H2.3ZM25.3 20.7V2.3H34.5C39.581 2.3 43.7 6.41898 43.7 11.5C43.7 16.581 39.581 20.7 34.5 20.7H25.3Z" fill="#8F8F8F"/>
</g>
<path d="M55.4967 30V16H60.2767C61.9167 16 63.2634 16.2933 64.3167 16.88C65.3834 17.4533 66.1701 18.2667 66.6767 19.32C67.1967 20.36 67.4567 21.5867 67.4567 23C67.4567 24.4133 67.1967 25.6467 66.6767 26.7C66.1701 27.74 65.3834 28.5533 64.3167 29.14C63.2634 29.7133 61.9167 30 60.2767 30H55.4967ZM58.0567 27.8H60.1567C61.3301 27.8 62.2567 27.6133 62.9367 27.24C63.6167 26.8533 64.1034 26.3067 64.3967 25.6C64.6901 24.88 64.8367 24.0133 64.8367 23C64.8367 22 64.6901 21.14 64.3967 20.42C64.1034 19.7 63.6167 19.1467 62.9367 18.76C62.2567 18.3733 61.3301 18.18 60.1567 18.18H58.0567V27.8ZM74.4755 30.24C73.4755 30.24 72.5888 30.0267 71.8155 29.6C71.0421 29.1733 70.4355 28.5733 69.9955 27.8C69.5555 27.0267 69.3355 26.1333 69.3355 25.12C69.3355 24.0933 69.5488 23.18 69.9755 22.38C70.4155 21.58 71.0155 20.96 71.7755 20.52C72.5488 20.0667 73.4555 19.84 74.4955 19.84C75.4688 19.84 76.3288 20.0533 77.0755 20.48C77.8221 20.9067 78.4021 21.4933 78.8155 22.24C79.2421 22.9733 79.4555 23.7933 79.4555 24.7C79.4555 24.8467 79.4488 25 79.4355 25.16C79.4355 25.32 79.4288 25.4867 79.4155 25.66H71.8755C71.9288 26.4333 72.1955 27.04 72.6755 27.48C73.1688 27.92 73.7621 28.14 74.4555 28.14C74.9755 28.14 75.4088 28.0267 75.7555 27.8C76.1155 27.56 76.3821 27.2533 76.5555 26.88H79.1555C78.9688 27.5067 78.6555 28.08 78.2155 28.6C77.7888 29.1067 77.2555 29.5067 76.6155 29.8C75.9888 30.0933 75.2755 30.24 74.4755 30.24ZM74.4955 21.92C73.8688 21.92 73.3155 22.1 72.8355 22.46C72.3555 22.8067 72.0488 23.34 71.9155 24.06H76.8555C76.8155 23.4067 76.5755 22.8867 76.1355 22.5C75.6955 22.1133 75.1488 21.92 74.4955 21.92ZM85.8528 30C84.8128 30 83.9795 29.7467 83.3528 29.24C82.7261 28.7333 82.4128 27.8333 82.4128 26.54V22.22H80.7128V20.08H82.4128L82.7128 17.42H84.9728V20.08H87.6528V22.22H84.9728V26.56C84.9728 27.04 85.0728 27.3733 85.2728 27.56C85.4861 27.7333 85.8461 27.82 86.3528 27.82H87.5928V30H85.8528ZM89.8508 30V20.08H92.1308L92.3708 21.94C92.7308 21.3 93.2174 20.7933 93.8308 20.42C94.4574 20.0333 95.1908 19.84 96.0308 19.84V22.54H95.3108C94.7508 22.54 94.2508 22.6267 93.8108 22.8C93.3708 22.9733 93.0241 23.2733 92.7708 23.7C92.5308 24.1267 92.4108 24.72 92.4108 25.48V30H89.8508ZM102.365 30.24C101.405 30.24 100.538 30.02 99.7647 29.58C99.0047 29.14 98.398 28.5333 97.9447 27.76C97.5047 26.9733 97.2847 26.0667 97.2847 25.04C97.2847 24.0133 97.5114 23.1133 97.9647 22.34C98.418 21.5533 99.0247 20.94 99.7847 20.5C100.558 20.06 101.425 19.84 102.385 19.84C103.331 19.84 104.185 20.06 104.945 20.5C105.718 20.94 106.325 21.5533 106.765 22.34C107.218 23.1133 107.445 24.0133 107.445 25.04C107.445 26.0667 107.218 26.9733 106.765 27.76C106.325 28.5333 105.718 29.14 104.945 29.58C104.171 30.02 103.311 30.24 102.365 30.24ZM102.365 28.02C103.031 28.02 103.611 27.7733 104.105 27.28C104.598 26.7733 104.845 26.0267 104.845 25.04C104.845 24.0533 104.598 23.3133 104.105 22.82C103.611 22.3133 103.038 22.06 102.385 22.06C101.705 22.06 101.118 22.3133 100.625 22.82C100.145 23.3133 99.9047 24.0533 99.9047 25.04C99.9047 26.0267 100.145 26.7733 100.625 27.28C101.118 27.7733 101.698 28.02 102.365 28.02ZM111.114 18.54C110.647 18.54 110.26 18.4 109.954 18.12C109.66 17.84 109.514 17.4867 109.514 17.06C109.514 16.6333 109.66 16.2867 109.954 16.02C110.26 15.74 110.647 15.6 111.114 15.6C111.58 15.6 111.96 15.74 112.254 16.02C112.56 16.2867 112.714 16.6333 112.714 17.06C112.714 17.4867 112.56 17.84 112.254 18.12C111.96 18.4 111.58 18.54 111.114 18.54ZM109.834 30V20.08H112.394V30H109.834ZM119.486 30C118.446 30 117.612 29.7467 116.986 29.24C116.359 28.7333 116.046 27.8333 116.046 26.54V22.22H114.346V20.08H116.046L116.346 17.42H118.606V20.08H121.286V22.22H118.606V26.56C118.606 27.04 118.706 27.3733 118.906 27.56C119.119 27.7333 119.479 27.82 119.986 27.82H121.226V30H119.486ZM134.649 30.24C133.236 30.24 132.023 29.94 131.009 29.34C129.996 28.7267 129.216 27.88 128.669 26.8C128.123 25.7067 127.849 24.4467 127.849 23.02C127.849 21.5933 128.123 20.3333 128.669 19.24C129.216 18.1467 129.996 17.2933 131.009 16.68C132.023 16.0667 133.236 15.76 134.649 15.76C136.329 15.76 137.703 16.18 138.769 17.02C139.849 17.8467 140.523 19.0133 140.789 20.52H137.969C137.796 19.76 137.423 19.1667 136.849 18.74C136.289 18.3 135.543 18.08 134.609 18.08C133.316 18.08 132.303 18.52 131.569 19.4C130.836 20.28 130.469 21.4867 130.469 23.02C130.469 24.5533 130.836 25.76 131.569 26.64C132.303 27.5067 133.316 27.94 134.609 27.94C135.543 27.94 136.289 27.74 136.849 27.34C137.423 26.9267 137.796 26.36 137.969 25.64H140.789C140.523 27.08 139.849 28.2067 138.769 29.02C137.703 29.8333 136.329 30.24 134.649 30.24ZM147.755 30.24C146.795 30.24 145.929 30.02 145.155 29.58C144.395 29.14 143.789 28.5333 143.335 27.76C142.895 26.9733 142.675 26.0667 142.675 25.04C142.675 24.0133 142.902 23.1133 143.355 22.34C143.809 21.5533 144.415 20.94 145.175 20.5C145.949 20.06 146.815 19.84 147.775 19.84C148.722 19.84 149.575 20.06 150.335 20.5C151.109 20.94 151.715 21.5533 152.155 22.34C152.609 23.1133 152.835 24.0133 152.835 25.04C152.835 26.0667 152.609 26.9733 152.155 27.76C151.715 28.5333 151.109 29.14 150.335 29.58C149.562 30.02 148.702 30.24 147.755 30.24ZM147.755 28.02C148.422 28.02 149.002 27.7733 149.495 27.28C149.989 26.7733 150.235 26.0267 150.235 25.04C150.235 24.0533 149.989 23.3133 149.495 22.82C149.002 22.3133 148.429 22.06 147.775 22.06C147.095 22.06 146.509 22.3133 146.015 22.82C145.535 23.3133 145.295 24.0533 145.295 25.04C145.295 26.0267 145.535 26.7733 146.015 27.28C146.509 27.7733 147.089 28.02 147.755 28.02ZM155.124 30V15.6H157.684V30H155.124ZM160.3 30V15.6H162.86V30H160.3ZM170.296 30.24C169.296 30.24 168.409 30.0267 167.636 29.6C166.862 29.1733 166.256 28.5733 165.816 27.8C165.376 27.0267 165.156 26.1333 165.156 25.12C165.156 24.0933 165.369 23.18 165.796 22.38C166.236 21.58 166.836 20.96 167.596 20.52C168.369 20.0667 169.276 19.84 170.316 19.84C171.289 19.84 172.149 20.0533 172.896 20.48C173.642 20.9067 174.222 21.4933 174.636 22.24C175.062 22.9733 175.276 23.7933 175.276 24.7C175.276 24.8467 175.269 25 175.256 25.16C175.256 25.32 175.249 25.4867 175.236 25.66H167.696C167.749 26.4333 168.016 27.04 168.496 27.48C168.989 27.92 169.582 28.14 170.276 28.14C170.796 28.14 171.229 28.0267 171.576 27.8C171.936 27.56 172.202 27.2533 172.376 26.88H174.976C174.789 27.5067 174.476 28.08 174.036 28.6C173.609 29.1067 173.076 29.5067 172.436 29.8C171.809 30.0933 171.096 30.24 170.296 30.24ZM170.316 21.92C169.689 21.92 169.136 22.1 168.656 22.46C168.176 22.8067 167.869 23.34 167.736 24.06H172.676C172.636 23.4067 172.396 22.8867 171.956 22.5C171.516 22.1133 170.969 21.92 170.316 21.92ZM181.414 27.04C180.934 27.04 180.487 26.9867 180.074 26.88L179.334 27.62C179.561 27.74 179.867 27.84 180.254 27.92C180.641 28 181.267 28.08 182.134 28.16C183.454 28.28 184.414 28.5933 185.014 29.1C185.614 29.6067 185.914 30.3067 185.914 31.2C185.914 31.7867 185.754 32.34 185.434 32.86C185.114 33.3933 184.621 33.82 183.954 34.14C183.287 34.4733 182.434 34.64 181.394 34.64C179.981 34.64 178.841 34.3733 177.974 33.84C177.107 33.32 176.674 32.5333 176.674 31.48C176.674 30.5867 177.107 29.8133 177.974 29.16C177.707 29.04 177.474 28.9133 177.274 28.78C177.087 28.6467 176.921 28.5067 176.774 28.36V27.9L178.514 26.06C177.741 25.38 177.354 24.5067 177.354 23.44C177.354 22.7733 177.514 22.1667 177.834 21.62C178.167 21.0733 178.634 20.64 179.234 20.32C179.834 20 180.561 19.84 181.414 19.84C181.974 19.84 182.494 19.92 182.974 20.08H186.734V21.64L185.034 21.76C185.301 22.2667 185.434 22.8267 185.434 23.44C185.434 24.1067 185.274 24.7133 184.954 25.26C184.634 25.8067 184.167 26.24 183.554 26.56C182.954 26.88 182.241 27.04 181.414 27.04ZM181.414 25.08C181.934 25.08 182.361 24.94 182.694 24.66C183.041 24.38 183.214 23.98 183.214 23.46C183.214 22.94 183.041 22.54 182.694 22.26C182.361 21.98 181.934 21.84 181.414 21.84C180.867 21.84 180.427 21.98 180.094 22.26C179.761 22.54 179.594 22.94 179.594 23.46C179.594 23.98 179.761 24.38 180.094 24.66C180.427 24.94 180.867 25.08 181.414 25.08ZM179.014 31.22C179.014 31.7133 179.241 32.08 179.694 32.32C180.161 32.5733 180.727 32.7 181.394 32.7C182.034 32.7 182.554 32.5667 182.954 32.3C183.354 32.0467 183.554 31.7 183.554 31.26C183.554 30.9 183.421 30.6 183.154 30.36C182.901 30.12 182.387 29.9733 181.614 29.92C181.067 29.88 180.561 29.82 180.094 29.74C179.707 29.9533 179.427 30.1867 179.254 30.44C179.094 30.6933 179.014 30.9533 179.014 31.22ZM193.03 30.24C192.03 30.24 191.143 30.0267 190.37 29.6C189.597 29.1733 188.99 28.5733 188.55 27.8C188.11 27.0267 187.89 26.1333 187.89 25.12C187.89 24.0933 188.103 23.18 188.53 22.38C188.97 21.58 189.57 20.96 190.33 20.52C191.103 20.0667 192.01 19.84 193.05 19.84C194.023 19.84 194.883 20.0533 195.63 20.48C196.377 20.9067 196.957 21.4933 197.37 22.24C197.797 22.9733 198.01 23.7933 198.01 24.7C198.01 24.8467 198.003 25 197.99 25.16C197.99 25.32 197.983 25.4867 197.97 25.66H190.43C190.483 26.4333 190.75 27.04 191.23 27.48C191.723 27.92 192.317 28.14 193.01 28.14C193.53 28.14 193.963 28.0267 194.31 27.8C194.67 27.56 194.937 27.2533 195.11 26.88H197.71C197.523 27.5067 197.21 28.08 196.77 28.6C196.343 29.1067 195.81 29.5067 195.17 29.8C194.543 30.0933 193.83 30.24 193.03 30.24ZM193.05 21.92C192.423 21.92 191.87 22.1 191.39 22.46C190.91 22.8067 190.603 23.34 190.47 24.06H195.41C195.37 23.4067 195.13 22.8867 194.69 22.5C194.25 22.1133 193.703 21.92 193.05 21.92Z" fill="#8F8F8F"/>
<defs>
<clipPath id="clip0_140_1783">
<rect width="46" height="46" fill="white"/>
</clipPath>
</defs>
</svg>
