<svg width="233" height="46" viewBox="0 0 233 46" fill="none" xmlns="http://www.w3.org/2000/svg">
<g clip-path="url(#clip0_140_1787)">
<path d="M48 0H0V46H48V0Z" fill="#8F8F8F"/>
<path d="M16.2266 45.9361L24.4977 4.72351V11.0826L21.0577 33.0689L24.0932 29.3463L23.9821 31.9828L20.6755 35.6415L20.151 39.1255L23.8355 34.6533L23.6843 37.818L19.7288 42.1198L19.1332 45.9404L16.2266 45.9361ZM25.7777 2.82388V45.9361H30.0977L29.6355 37.8563L38.0443 39.347L37.0977 36.208L29.4532 34.6959L29.2399 31.0841L35.9866 32.4215L32.3688 20.2315L43.0577 45.9361H46.551L25.7777 2.82388Z" fill="white"/>
</g>
<path d="M57.4909 30V16H60.0509V21.82H66.3309V16H68.8909V30H66.3309V23.9H60.0509V30H57.4909ZM72.932 18.54C72.4653 18.54 72.0786 18.4 71.772 18.12C71.4786 17.84 71.332 17.4867 71.332 17.06C71.332 16.6333 71.4786 16.2867 71.772 16.02C72.0786 15.74 72.4653 15.6 72.932 15.6C73.3986 15.6 73.7786 15.74 74.072 16.02C74.3786 16.2867 74.532 16.6333 74.532 17.06C74.532 17.4867 74.3786 17.84 74.072 18.12C73.7786 18.4 73.3986 18.54 72.932 18.54ZM71.652 30V20.08H74.212V30H71.652ZM81.084 27.04C80.604 27.04 80.1573 26.9867 79.744 26.88L79.004 27.62C79.2307 27.74 79.5373 27.84 79.924 27.92C80.3107 28 80.9373 28.08 81.804 28.16C83.124 28.28 84.084 28.5933 84.684 29.1C85.284 29.6067 85.584 30.3067 85.584 31.2C85.584 31.7867 85.424 32.34 85.104 32.86C84.784 33.3933 84.2907 33.82 83.624 34.14C82.9573 34.4733 82.104 34.64 81.064 34.64C79.6507 34.64 78.5107 34.3733 77.644 33.84C76.7773 33.32 76.344 32.5333 76.344 31.48C76.344 30.5867 76.7773 29.8133 77.644 29.16C77.3773 29.04 77.144 28.9133 76.944 28.78C76.7573 28.6467 76.5907 28.5067 76.444 28.36V27.9L78.184 26.06C77.4107 25.38 77.024 24.5067 77.024 23.44C77.024 22.7733 77.184 22.1667 77.504 21.62C77.8373 21.0733 78.304 20.64 78.904 20.32C79.504 20 80.2307 19.84 81.084 19.84C81.644 19.84 82.164 19.92 82.644 20.08H86.404V21.64L84.704 21.76C84.9707 22.2667 85.104 22.8267 85.104 23.44C85.104 24.1067 84.944 24.7133 84.624 25.26C84.304 25.8067 83.8373 26.24 83.224 26.56C82.624 26.88 81.9107 27.04 81.084 27.04ZM81.084 25.08C81.604 25.08 82.0307 24.94 82.364 24.66C82.7107 24.38 82.884 23.98 82.884 23.46C82.884 22.94 82.7107 22.54 82.364 22.26C82.0307 21.98 81.604 21.84 81.084 21.84C80.5373 21.84 80.0973 21.98 79.764 22.26C79.4307 22.54 79.264 22.94 79.264 23.46C79.264 23.98 79.4307 24.38 79.764 24.66C80.0973 24.94 80.5373 25.08 81.084 25.08ZM78.684 31.22C78.684 31.7133 78.9107 32.08 79.364 32.32C79.8307 32.5733 80.3973 32.7 81.064 32.7C81.704 32.7 82.224 32.5667 82.624 32.3C83.024 32.0467 83.224 31.7 83.224 31.26C83.224 30.9 83.0907 30.6 82.824 30.36C82.5707 30.12 82.0573 29.9733 81.284 29.92C80.7373 29.88 80.2307 29.82 79.764 29.74C79.3773 29.9533 79.0973 30.1867 78.924 30.44C78.764 30.6933 78.684 30.9533 78.684 31.22ZM88.2707 30V15.6H90.8307V21.6C91.164 21.0533 91.6107 20.6267 92.1707 20.32C92.744 20 93.3974 19.84 94.1307 19.84C95.3574 19.84 96.304 20.2267 96.9707 21C97.6507 21.7733 97.9907 22.9067 97.9907 24.4V30H95.4507V24.64C95.4507 23.7867 95.2774 23.1333 94.9307 22.68C94.5974 22.2267 94.064 22 93.3307 22C92.6107 22 92.0107 22.2533 91.5307 22.76C91.064 23.2667 90.8307 23.9733 90.8307 24.88V30H88.2707ZM100.219 25.28V23.14H108.599V25.28H100.219ZM111.046 30V16H116.226C117.346 16 118.272 16.1867 119.006 16.56C119.739 16.9333 120.286 17.4467 120.646 18.1C121.006 18.7533 121.186 19.4867 121.186 20.3C121.186 21.0733 121.012 21.7867 120.666 22.44C120.319 23.08 119.779 23.6 119.046 24C118.312 24.3867 117.372 24.58 116.226 24.58H113.606V30H111.046ZM113.606 22.5H116.066C116.959 22.5 117.599 22.3067 117.986 21.92C118.386 21.52 118.586 20.98 118.586 20.3C118.586 19.6067 118.386 19.0667 117.986 18.68C117.599 18.28 116.959 18.08 116.066 18.08H113.606V22.5ZM127.446 30.24C126.446 30.24 125.56 30.0267 124.786 29.6C124.013 29.1733 123.406 28.5733 122.966 27.8C122.526 27.0267 122.306 26.1333 122.306 25.12C122.306 24.0933 122.52 23.18 122.946 22.38C123.386 21.58 123.986 20.96 124.746 20.52C125.52 20.0667 126.426 19.84 127.466 19.84C128.44 19.84 129.3 20.0533 130.046 20.48C130.793 20.9067 131.373 21.4933 131.786 22.24C132.213 22.9733 132.426 23.7933 132.426 24.7C132.426 24.8467 132.42 25 132.406 25.16C132.406 25.32 132.4 25.4867 132.386 25.66H124.846C124.9 26.4333 125.166 27.04 125.646 27.48C126.14 27.92 126.733 28.14 127.426 28.14C127.946 28.14 128.38 28.0267 128.726 27.8C129.086 27.56 129.353 27.2533 129.526 26.88H132.126C131.94 27.5067 131.626 28.08 131.186 28.6C130.76 29.1067 130.226 29.5067 129.586 29.8C128.96 30.0933 128.246 30.24 127.446 30.24ZM127.466 21.92C126.84 21.92 126.286 22.1 125.806 22.46C125.326 22.8067 125.02 23.34 124.886 24.06H129.826C129.786 23.4067 129.546 22.8867 129.106 22.5C128.666 22.1133 128.12 21.92 127.466 21.92ZM137.999 30.24C137.146 30.24 136.446 30.1067 135.899 29.84C135.353 29.56 134.946 29.1933 134.679 28.74C134.413 28.2867 134.279 27.7867 134.279 27.24C134.279 26.32 134.639 25.5733 135.359 25C136.079 24.4267 137.159 24.14 138.599 24.14H141.119V23.9C141.119 23.22 140.926 22.72 140.539 22.4C140.153 22.08 139.673 21.92 139.099 21.92C138.579 21.92 138.126 22.0467 137.739 22.3C137.353 22.54 137.113 22.9 137.019 23.38H134.519C134.586 22.66 134.826 22.0333 135.239 21.5C135.666 20.9667 136.213 20.56 136.879 20.28C137.546 19.9867 138.293 19.84 139.119 19.84C140.533 19.84 141.646 20.1933 142.459 20.9C143.273 21.6067 143.679 22.6067 143.679 23.9V30H141.499L141.259 28.4C140.966 28.9333 140.553 29.3733 140.019 29.72C139.499 30.0667 138.826 30.24 137.999 30.24ZM138.579 28.24C139.313 28.24 139.879 28 140.279 27.52C140.693 27.04 140.953 26.4467 141.059 25.74H138.879C138.199 25.74 137.713 25.8667 137.419 26.12C137.126 26.36 136.979 26.66 136.979 27.02C136.979 27.4067 137.126 27.7067 137.419 27.92C137.713 28.1333 138.099 28.24 138.579 28.24ZM146.122 30V15.6H148.682V24.1L152.202 20.08H155.242L151.182 24.6L155.902 30H152.702L148.682 25.02V30H146.122ZM168.655 30.24C167.242 30.24 166.028 29.94 165.015 29.34C164.002 28.7267 163.222 27.88 162.675 26.8C162.128 25.7067 161.855 24.4467 161.855 23.02C161.855 21.5933 162.128 20.3333 162.675 19.24C163.222 18.1467 164.002 17.2933 165.015 16.68C166.028 16.0667 167.242 15.76 168.655 15.76C170.335 15.76 171.708 16.18 172.775 17.02C173.855 17.8467 174.528 19.0133 174.795 20.52H171.975C171.802 19.76 171.428 19.1667 170.855 18.74C170.295 18.3 169.548 18.08 168.615 18.08C167.322 18.08 166.308 18.52 165.575 19.4C164.842 20.28 164.475 21.4867 164.475 23.02C164.475 24.5533 164.842 25.76 165.575 26.64C166.308 27.5067 167.322 27.94 168.615 27.94C169.548 27.94 170.295 27.74 170.855 27.34C171.428 26.9267 171.802 26.36 171.975 25.64H174.795C174.528 27.08 173.855 28.2067 172.775 29.02C171.708 29.8333 170.335 30.24 168.655 30.24ZM181.761 30.24C180.801 30.24 179.935 30.02 179.161 29.58C178.401 29.14 177.795 28.5333 177.341 27.76C176.901 26.9733 176.681 26.0667 176.681 25.04C176.681 24.0133 176.908 23.1133 177.361 22.34C177.815 21.5533 178.421 20.94 179.181 20.5C179.955 20.06 180.821 19.84 181.781 19.84C182.728 19.84 183.581 20.06 184.341 20.5C185.115 20.94 185.721 21.5533 186.161 22.34C186.615 23.1133 186.841 24.0133 186.841 25.04C186.841 26.0667 186.615 26.9733 186.161 27.76C185.721 28.5333 185.115 29.14 184.341 29.58C183.568 30.02 182.708 30.24 181.761 30.24ZM181.761 28.02C182.428 28.02 183.008 27.7733 183.501 27.28C183.995 26.7733 184.241 26.0267 184.241 25.04C184.241 24.0533 183.995 23.3133 183.501 22.82C183.008 22.3133 182.435 22.06 181.781 22.06C181.101 22.06 180.515 22.3133 180.021 22.82C179.541 23.3133 179.301 24.0533 179.301 25.04C179.301 26.0267 179.541 26.7733 180.021 27.28C180.515 27.7733 181.095 28.02 181.761 28.02ZM189.13 30V15.6H191.69V30H189.13ZM194.306 30V15.6H196.866V30H194.306ZM204.302 30.24C203.302 30.24 202.415 30.0267 201.642 29.6C200.868 29.1733 200.262 28.5733 199.822 27.8C199.382 27.0267 199.162 26.1333 199.162 25.12C199.162 24.0933 199.375 23.18 199.802 22.38C200.242 21.58 200.842 20.96 201.602 20.52C202.375 20.0667 203.282 19.84 204.322 19.84C205.295 19.84 206.155 20.0533 206.902 20.48C207.648 20.9067 208.228 21.4933 208.642 22.24C209.068 22.9733 209.282 23.7933 209.282 24.7C209.282 24.8467 209.275 25 209.262 25.16C209.262 25.32 209.255 25.4867 209.242 25.66H201.702C201.755 26.4333 202.022 27.04 202.502 27.48C202.995 27.92 203.588 28.14 204.282 28.14C204.802 28.14 205.235 28.0267 205.582 27.8C205.942 27.56 206.208 27.2533 206.382 26.88H208.982C208.795 27.5067 208.482 28.08 208.042 28.6C207.615 29.1067 207.082 29.5067 206.442 29.8C205.815 30.0933 205.102 30.24 204.302 30.24ZM204.322 21.92C203.695 21.92 203.142 22.1 202.662 22.46C202.182 22.8067 201.875 23.34 201.742 24.06H206.682C206.642 23.4067 206.402 22.8867 205.962 22.5C205.522 22.1133 204.975 21.92 204.322 21.92ZM215.42 27.04C214.94 27.04 214.493 26.9867 214.08 26.88L213.34 27.62C213.567 27.74 213.873 27.84 214.26 27.92C214.647 28 215.273 28.08 216.14 28.16C217.46 28.28 218.42 28.5933 219.02 29.1C219.62 29.6067 219.92 30.3067 219.92 31.2C219.92 31.7867 219.76 32.34 219.44 32.86C219.12 33.3933 218.627 33.82 217.96 34.14C217.293 34.4733 216.44 34.64 215.4 34.64C213.987 34.64 212.847 34.3733 211.98 33.84C211.113 33.32 210.68 32.5333 210.68 31.48C210.68 30.5867 211.113 29.8133 211.98 29.16C211.713 29.04 211.48 28.9133 211.28 28.78C211.093 28.6467 210.927 28.5067 210.78 28.36V27.9L212.52 26.06C211.747 25.38 211.36 24.5067 211.36 23.44C211.36 22.7733 211.52 22.1667 211.84 21.62C212.173 21.0733 212.64 20.64 213.24 20.32C213.84 20 214.567 19.84 215.42 19.84C215.98 19.84 216.5 19.92 216.98 20.08H220.74V21.64L219.04 21.76C219.307 22.2667 219.44 22.8267 219.44 23.44C219.44 24.1067 219.28 24.7133 218.96 25.26C218.64 25.8067 218.173 26.24 217.56 26.56C216.96 26.88 216.247 27.04 215.42 27.04ZM215.42 25.08C215.94 25.08 216.367 24.94 216.7 24.66C217.047 24.38 217.22 23.98 217.22 23.46C217.22 22.94 217.047 22.54 216.7 22.26C216.367 21.98 215.94 21.84 215.42 21.84C214.873 21.84 214.433 21.98 214.1 22.26C213.767 22.54 213.6 22.94 213.6 23.46C213.6 23.98 213.767 24.38 214.1 24.66C214.433 24.94 214.873 25.08 215.42 25.08ZM213.02 31.22C213.02 31.7133 213.247 32.08 213.7 32.32C214.167 32.5733 214.733 32.7 215.4 32.7C216.04 32.7 216.56 32.5667 216.96 32.3C217.36 32.0467 217.56 31.7 217.56 31.26C217.56 30.9 217.427 30.6 217.16 30.36C216.907 30.12 216.393 29.9733 215.62 29.92C215.073 29.88 214.567 29.82 214.1 29.74C213.713 29.9533 213.433 30.1867 213.26 30.44C213.1 30.6933 213.02 30.9533 213.02 31.22ZM227.036 30.24C226.036 30.24 225.149 30.0267 224.376 29.6C223.603 29.1733 222.996 28.5733 222.556 27.8C222.116 27.0267 221.896 26.1333 221.896 25.12C221.896 24.0933 222.109 23.18 222.536 22.38C222.976 21.58 223.576 20.96 224.336 20.52C225.109 20.0667 226.016 19.84 227.056 19.84C228.029 19.84 228.889 20.0533 229.636 20.48C230.383 20.9067 230.963 21.4933 231.376 22.24C231.803 22.9733 232.016 23.7933 232.016 24.7C232.016 24.8467 232.009 25 231.996 25.16C231.996 25.32 231.989 25.4867 231.976 25.66H224.436C224.489 26.4333 224.756 27.04 225.236 27.48C225.729 27.92 226.323 28.14 227.016 28.14C227.536 28.14 227.969 28.0267 228.316 27.8C228.676 27.56 228.943 27.2533 229.116 26.88H231.716C231.529 27.5067 231.216 28.08 230.776 28.6C230.349 29.1067 229.816 29.5067 229.176 29.8C228.549 30.0933 227.836 30.24 227.036 30.24ZM227.056 21.92C226.429 21.92 225.876 22.1 225.396 22.46C224.916 22.8067 224.609 23.34 224.476 24.06H229.416C229.376 23.4067 229.136 22.8867 228.696 22.5C228.256 22.1133 227.709 21.92 227.056 21.92Z" fill="#8F8F8F"/>
<defs>
<clipPath id="clip0_140_1787">
<rect width="48" height="46" fill="white"/>
</clipPath>
</defs>
</svg>
