<svg width="200" height="46" viewBox="0 0 200 46" fill="none" xmlns="http://www.w3.org/2000/svg">
<g clip-path="url(#clip0_140_1865)">
<path fill-rule="evenodd" clip-rule="evenodd" d="M12 0C18.3512 0 23.5 5.14872 23.5 11.5V0H35C41.3512 0 46.5 5.14872 46.5 11.5C46.5 17.8512 41.3512 23 35 23C41.3512 23 46.5 28.1488 46.5 34.5C46.5 37.6536 45.2305 40.5108 43.1748 42.5884L43.1318 42.6318L43.0936 42.6697C41.0155 44.7284 38.1563 46 35 46C31.8652 46 29.0233 44.7457 26.9489 42.7116C26.9219 42.6851 26.895 42.6584 26.8682 42.6318C26.8431 42.6066 26.818 42.5813 26.793 42.5559C24.7563 40.481 23.5 37.6372 23.5 34.5C23.5 40.8512 18.3512 46 12 46C5.64872 46 0.5 40.8512 0.5 34.5V23H12C5.64872 23 0.5 17.8512 0.5 11.5C0.5 5.14872 5.64872 0 12 0ZM21.2 11.5C21.2 16.581 17.081 20.7 12 20.7V2.3C17.081 2.3 21.2 6.41898 21.2 11.5ZM44.2 34.5C44.2 29.419 40.081 25.3 35 25.3C29.919 25.3 25.8 29.419 25.8 34.5H44.2ZM2.8 25.3V34.5C2.8 39.581 6.91898 43.7 12 43.7C17.081 43.7 21.2 39.581 21.2 34.5V25.3H2.8ZM25.8 20.7V2.3H35C40.081 2.3 44.2 6.41898 44.2 11.5C44.2 16.581 40.081 20.7 35 20.7H25.8Z" fill="#8F8F8F"/>
</g>
<path d="M55.9967 30V16H60.7767C62.4167 16 63.7634 16.2933 64.8167 16.88C65.8834 17.4533 66.6701 18.2667 67.1767 19.32C67.6967 20.36 67.9567 21.5867 67.9567 23C67.9567 24.4133 67.6967 25.6467 67.1767 26.7C66.6701 27.74 65.8834 28.5533 64.8167 29.14C63.7634 29.7133 62.4167 30 60.7767 30H55.9967ZM58.5567 27.8H60.6567C61.8301 27.8 62.7567 27.6133 63.4367 27.24C64.1167 26.8533 64.6034 26.3067 64.8967 25.6C65.1901 24.88 65.3367 24.0133 65.3367 23C65.3367 22 65.1901 21.14 64.8967 20.42C64.6034 19.7 64.1167 19.1467 63.4367 18.76C62.7567 18.3733 61.8301 18.18 60.6567 18.18H58.5567V27.8ZM74.9755 30.24C73.9755 30.24 73.0888 30.0267 72.3155 29.6C71.5421 29.1733 70.9355 28.5733 70.4955 27.8C70.0555 27.0267 69.8355 26.1333 69.8355 25.12C69.8355 24.0933 70.0488 23.18 70.4755 22.38C70.9155 21.58 71.5155 20.96 72.2755 20.52C73.0488 20.0667 73.9555 19.84 74.9955 19.84C75.9688 19.84 76.8288 20.0533 77.5755 20.48C78.3221 20.9067 78.9021 21.4933 79.3155 22.24C79.7421 22.9733 79.9555 23.7933 79.9555 24.7C79.9555 24.8467 79.9488 25 79.9355 25.16C79.9355 25.32 79.9288 25.4867 79.9155 25.66H72.3755C72.4288 26.4333 72.6955 27.04 73.1755 27.48C73.6688 27.92 74.2621 28.14 74.9555 28.14C75.4755 28.14 75.9088 28.0267 76.2555 27.8C76.6155 27.56 76.8821 27.2533 77.0555 26.88H79.6555C79.4688 27.5067 79.1555 28.08 78.7155 28.6C78.2888 29.1067 77.7555 29.5067 77.1155 29.8C76.4888 30.0933 75.7755 30.24 74.9755 30.24ZM74.9955 21.92C74.3688 21.92 73.8155 22.1 73.3355 22.46C72.8555 22.8067 72.5488 23.34 72.4155 24.06H77.3555C77.3155 23.4067 77.0755 22.8867 76.6355 22.5C76.1955 22.1133 75.6488 21.92 74.9955 21.92ZM86.3528 30C85.3128 30 84.4795 29.7467 83.8528 29.24C83.2261 28.7333 82.9128 27.8333 82.9128 26.54V22.22H81.2128V20.08H82.9128L83.2128 17.42H85.4728V20.08H88.1528V22.22H85.4728V26.56C85.4728 27.04 85.5728 27.3733 85.7728 27.56C85.9861 27.7333 86.3461 27.82 86.8528 27.82H88.0928V30H86.3528ZM90.3508 30V20.08H92.6308L92.8708 21.94C93.2308 21.3 93.7174 20.7933 94.3308 20.42C94.9574 20.0333 95.6908 19.84 96.5308 19.84V22.54H95.8108C95.2508 22.54 94.7508 22.6267 94.3108 22.8C93.8708 22.9733 93.5241 23.2733 93.2708 23.7C93.0308 24.1267 92.9108 24.72 92.9108 25.48V30H90.3508ZM102.865 30.24C101.905 30.24 101.038 30.02 100.265 29.58C99.5047 29.14 98.898 28.5333 98.4447 27.76C98.0047 26.9733 97.7847 26.0667 97.7847 25.04C97.7847 24.0133 98.0114 23.1133 98.4647 22.34C98.918 21.5533 99.5247 20.94 100.285 20.5C101.058 20.06 101.925 19.84 102.885 19.84C103.831 19.84 104.685 20.06 105.445 20.5C106.218 20.94 106.825 21.5533 107.265 22.34C107.718 23.1133 107.945 24.0133 107.945 25.04C107.945 26.0667 107.718 26.9733 107.265 27.76C106.825 28.5333 106.218 29.14 105.445 29.58C104.671 30.02 103.811 30.24 102.865 30.24ZM102.865 28.02C103.531 28.02 104.111 27.7733 104.605 27.28C105.098 26.7733 105.345 26.0267 105.345 25.04C105.345 24.0533 105.098 23.3133 104.605 22.82C104.111 22.3133 103.538 22.06 102.885 22.06C102.205 22.06 101.618 22.3133 101.125 22.82C100.645 23.3133 100.405 24.0533 100.405 25.04C100.405 26.0267 100.645 26.7733 101.125 27.28C101.618 27.7733 102.198 28.02 102.865 28.02ZM111.614 18.54C111.147 18.54 110.76 18.4 110.454 18.12C110.16 17.84 110.014 17.4867 110.014 17.06C110.014 16.6333 110.16 16.2867 110.454 16.02C110.76 15.74 111.147 15.6 111.614 15.6C112.08 15.6 112.46 15.74 112.754 16.02C113.06 16.2867 113.214 16.6333 113.214 17.06C113.214 17.4867 113.06 17.84 112.754 18.12C112.46 18.4 112.08 18.54 111.614 18.54ZM110.334 30V20.08H112.894V30H110.334ZM119.986 30C118.946 30 118.112 29.7467 117.486 29.24C116.859 28.7333 116.546 27.8333 116.546 26.54V22.22H114.846V20.08H116.546L116.846 17.42H119.106V20.08H121.786V22.22H119.106V26.56C119.106 27.04 119.206 27.3733 119.406 27.56C119.619 27.7333 119.979 27.82 120.486 27.82H121.726V30H119.986ZM135.149 30.24C133.736 30.24 132.523 29.94 131.509 29.34C130.496 28.7267 129.716 27.88 129.169 26.8C128.623 25.7067 128.349 24.4467 128.349 23.02C128.349 21.5933 128.623 20.3333 129.169 19.24C129.716 18.1467 130.496 17.2933 131.509 16.68C132.523 16.0667 133.736 15.76 135.149 15.76C136.829 15.76 138.203 16.18 139.269 17.02C140.349 17.8467 141.023 19.0133 141.289 20.52H138.469C138.296 19.76 137.923 19.1667 137.349 18.74C136.789 18.3 136.043 18.08 135.109 18.08C133.816 18.08 132.803 18.52 132.069 19.4C131.336 20.28 130.969 21.4867 130.969 23.02C130.969 24.5533 131.336 25.76 132.069 26.64C132.803 27.5067 133.816 27.94 135.109 27.94C136.043 27.94 136.789 27.74 137.349 27.34C137.923 26.9267 138.296 26.36 138.469 25.64H141.289C141.023 27.08 140.349 28.2067 139.269 29.02C138.203 29.8333 136.829 30.24 135.149 30.24ZM148.255 30.24C147.295 30.24 146.429 30.02 145.655 29.58C144.895 29.14 144.289 28.5333 143.835 27.76C143.395 26.9733 143.175 26.0667 143.175 25.04C143.175 24.0133 143.402 23.1133 143.855 22.34C144.309 21.5533 144.915 20.94 145.675 20.5C146.449 20.06 147.315 19.84 148.275 19.84C149.222 19.84 150.075 20.06 150.835 20.5C151.609 20.94 152.215 21.5533 152.655 22.34C153.109 23.1133 153.335 24.0133 153.335 25.04C153.335 26.0667 153.109 26.9733 152.655 27.76C152.215 28.5333 151.609 29.14 150.835 29.58C150.062 30.02 149.202 30.24 148.255 30.24ZM148.255 28.02C148.922 28.02 149.502 27.7733 149.995 27.28C150.489 26.7733 150.735 26.0267 150.735 25.04C150.735 24.0533 150.489 23.3133 149.995 22.82C149.502 22.3133 148.929 22.06 148.275 22.06C147.595 22.06 147.009 22.3133 146.515 22.82C146.035 23.3133 145.795 24.0533 145.795 25.04C145.795 26.0267 146.035 26.7733 146.515 27.28C147.009 27.7733 147.589 28.02 148.255 28.02ZM155.624 30V15.6H158.184V30H155.624ZM160.8 30V15.6H163.36V30H160.8ZM170.796 30.24C169.796 30.24 168.909 30.0267 168.136 29.6C167.362 29.1733 166.756 28.5733 166.316 27.8C165.876 27.0267 165.656 26.1333 165.656 25.12C165.656 24.0933 165.869 23.18 166.296 22.38C166.736 21.58 167.336 20.96 168.096 20.52C168.869 20.0667 169.776 19.84 170.816 19.84C171.789 19.84 172.649 20.0533 173.396 20.48C174.142 20.9067 174.722 21.4933 175.136 22.24C175.562 22.9733 175.776 23.7933 175.776 24.7C175.776 24.8467 175.769 25 175.756 25.16C175.756 25.32 175.749 25.4867 175.736 25.66H168.196C168.249 26.4333 168.516 27.04 168.996 27.48C169.489 27.92 170.082 28.14 170.776 28.14C171.296 28.14 171.729 28.0267 172.076 27.8C172.436 27.56 172.702 27.2533 172.876 26.88H175.476C175.289 27.5067 174.976 28.08 174.536 28.6C174.109 29.1067 173.576 29.5067 172.936 29.8C172.309 30.0933 171.596 30.24 170.796 30.24ZM170.816 21.92C170.189 21.92 169.636 22.1 169.156 22.46C168.676 22.8067 168.369 23.34 168.236 24.06H173.176C173.136 23.4067 172.896 22.8867 172.456 22.5C172.016 22.1133 171.469 21.92 170.816 21.92ZM181.914 27.04C181.434 27.04 180.987 26.9867 180.574 26.88L179.834 27.62C180.061 27.74 180.367 27.84 180.754 27.92C181.141 28 181.767 28.08 182.634 28.16C183.954 28.28 184.914 28.5933 185.514 29.1C186.114 29.6067 186.414 30.3067 186.414 31.2C186.414 31.7867 186.254 32.34 185.934 32.86C185.614 33.3933 185.121 33.82 184.454 34.14C183.787 34.4733 182.934 34.64 181.894 34.64C180.481 34.64 179.341 34.3733 178.474 33.84C177.607 33.32 177.174 32.5333 177.174 31.48C177.174 30.5867 177.607 29.8133 178.474 29.16C178.207 29.04 177.974 28.9133 177.774 28.78C177.587 28.6467 177.421 28.5067 177.274 28.36V27.9L179.014 26.06C178.241 25.38 177.854 24.5067 177.854 23.44C177.854 22.7733 178.014 22.1667 178.334 21.62C178.667 21.0733 179.134 20.64 179.734 20.32C180.334 20 181.061 19.84 181.914 19.84C182.474 19.84 182.994 19.92 183.474 20.08H187.234V21.64L185.534 21.76C185.801 22.2667 185.934 22.8267 185.934 23.44C185.934 24.1067 185.774 24.7133 185.454 25.26C185.134 25.8067 184.667 26.24 184.054 26.56C183.454 26.88 182.741 27.04 181.914 27.04ZM181.914 25.08C182.434 25.08 182.861 24.94 183.194 24.66C183.541 24.38 183.714 23.98 183.714 23.46C183.714 22.94 183.541 22.54 183.194 22.26C182.861 21.98 182.434 21.84 181.914 21.84C181.367 21.84 180.927 21.98 180.594 22.26C180.261 22.54 180.094 22.94 180.094 23.46C180.094 23.98 180.261 24.38 180.594 24.66C180.927 24.94 181.367 25.08 181.914 25.08ZM179.514 31.22C179.514 31.7133 179.741 32.08 180.194 32.32C180.661 32.5733 181.227 32.7 181.894 32.7C182.534 32.7 183.054 32.5667 183.454 32.3C183.854 32.0467 184.054 31.7 184.054 31.26C184.054 30.9 183.921 30.6 183.654 30.36C183.401 30.12 182.887 29.9733 182.114 29.92C181.567 29.88 181.061 29.82 180.594 29.74C180.207 29.9533 179.927 30.1867 179.754 30.44C179.594 30.6933 179.514 30.9533 179.514 31.22ZM193.53 30.24C192.53 30.24 191.643 30.0267 190.87 29.6C190.097 29.1733 189.49 28.5733 189.05 27.8C188.61 27.0267 188.39 26.1333 188.39 25.12C188.39 24.0933 188.603 23.18 189.03 22.38C189.47 21.58 190.07 20.96 190.83 20.52C191.603 20.0667 192.51 19.84 193.55 19.84C194.523 19.84 195.383 20.0533 196.13 20.48C196.877 20.9067 197.457 21.4933 197.87 22.24C198.297 22.9733 198.51 23.7933 198.51 24.7C198.51 24.8467 198.503 25 198.49 25.16C198.49 25.32 198.483 25.4867 198.47 25.66H190.93C190.983 26.4333 191.25 27.04 191.73 27.48C192.223 27.92 192.817 28.14 193.51 28.14C194.03 28.14 194.463 28.0267 194.81 27.8C195.17 27.56 195.437 27.2533 195.61 26.88H198.21C198.023 27.5067 197.71 28.08 197.27 28.6C196.843 29.1067 196.31 29.5067 195.67 29.8C195.043 30.0933 194.33 30.24 193.53 30.24ZM193.55 21.92C192.923 21.92 192.37 22.1 191.89 22.46C191.41 22.8067 191.103 23.34 190.97 24.06H195.91C195.87 23.4067 195.63 22.8867 195.19 22.5C194.75 22.1133 194.203 21.92 193.55 21.92Z" fill="#8F8F8F"/>
<defs>
<clipPath id="clip0_140_1865">
<rect width="46" height="46" fill="white" transform="translate(0.5)"/>
</clipPath>
</defs>
</svg>
