<svg width="32" height="33" viewBox="0 0 32 33" fill="none" xmlns="http://www.w3.org/2000/svg">
<path d="M26.5839 11.1666H27.9999C28.7072 11.1666 29.3854 11.4476 29.8855 11.9477C30.3856 12.4478 30.6666 13.126 30.6666 13.8333V19.1666C30.6666 19.8739 30.3856 20.5521 29.8855 21.0522C29.3854 21.5523 28.7072 21.8333 27.9999 21.8333H26.5839C26.2591 24.4111 25.0046 26.7818 23.0559 28.5003C21.1071 30.2188 18.5981 31.1669 15.9999 31.1666V28.5C18.1217 28.5 20.1565 27.6571 21.6568 26.1568C23.1571 24.6565 23.9999 22.6217 23.9999 20.4999V12.4999C23.9999 10.3782 23.1571 8.34339 21.6568 6.84309C20.1565 5.3428 18.1217 4.49995 15.9999 4.49995C13.8782 4.49995 11.8434 5.3428 10.3431 6.84309C8.84277 8.34339 7.99992 10.3782 7.99992 12.4999V21.8333H3.99992C3.29267 21.8333 2.6144 21.5523 2.1143 21.0522C1.6142 20.5521 1.33325 19.8739 1.33325 19.1666V13.8333C1.33325 13.126 1.6142 12.4478 2.1143 11.9477C2.6144 11.4476 3.29267 11.1666 3.99992 11.1666H5.41592C5.74129 8.58914 6.99603 6.21898 8.94468 4.50085C10.8933 2.78272 13.402 1.83472 15.9999 1.83472C18.5978 1.83472 21.1065 2.78272 23.0552 4.50085C25.0038 6.21898 26.2585 8.58914 26.5839 11.1666ZM3.99992 13.8333V19.1666H5.33325V13.8333H3.99992ZM26.6666 13.8333V19.1666H27.9999V13.8333H26.6666ZM10.3466 21.5466L11.7599 19.2853C13.0306 20.0815 14.5004 20.5025 15.9999 20.4999C17.4995 20.5025 18.9692 20.0815 20.2399 19.2853L21.6533 21.5466C19.959 22.6083 17.9993 23.1699 15.9999 23.1666C14.0005 23.1699 12.0408 22.6083 10.3466 21.5466Z" fill="url(#paint0_linear_151_1947)"/>
<defs>
<linearGradient id="paint0_linear_151_1947" x1="26.8928" y1="-1.5476" x2="-0.844612" y2="4.64247" gradientUnits="userSpaceOnUse">
<stop stop-color="#3E3EFA"/>
<stop offset="1" stop-color="#252594"/>
</linearGradient>
</defs>
</svg>
